<svg width="430" height="634" viewBox="0 0 430 634" fill="none" xmlns="http://www.w3.org/2000/svg">
<path d="M-148.434 540.929H320.6C321.297 540.929 321.868 540.358 321.868 539.661C321.868 538.963 321.297 538.393 320.6 538.393H-148.434C-149.131 538.393 -149.702 538.963 -149.702 539.661C-149.702 540.358 -149.131 540.929 -148.434 540.929Z" fill="#1D1D1B"/>
<path d="M284.652 518.232H356.611C357.308 518.232 357.879 517.661 357.879 516.964C357.879 516.266 357.308 515.696 356.611 515.696H284.652C283.954 515.696 283.384 516.266 283.384 516.964C283.384 517.661 283.954 518.232 284.652 518.232Z" fill="#1D1D1B"/>
<path d="M-117.811 539.978V162.875C-117.811 144.298 -102.722 129.209 -84.1461 129.209H112.394C130.97 129.209 146.059 144.298 146.059 162.875V539.978H-117.811Z" fill="#67087E"/>
<path d="M-118.762 540.929H147.01V162.875C147.01 143.791 131.541 128.258 112.394 128.258H-84.1461C-103.229 128.258 -118.762 143.791 -118.762 162.875V540.929ZM145.108 539.027H-116.797V162.875C-116.797 144.806 -102.152 130.224 -84.0827 130.16H112.394C130.463 130.16 145.108 144.806 145.108 162.875V539.027Z" fill="#1D1E1B"/>
<path d="M-108.175 539.978C-108.365 538.583 -108.492 537.125 -108.492 535.73V176.442C-108.492 159.197 -94.4803 145.186 -77.2354 145.186H-41.8583C-41.8583 145.313 -41.8583 145.44 -41.8583 145.503C-41.8583 154.506 -34.5673 161.86 -25.5011 161.86H52.4175C61.4203 161.86 68.7747 154.569 68.7747 145.503C68.7747 145.376 68.7747 145.249 68.7747 145.186H105.483C122.728 145.186 136.74 159.197 136.74 176.442V535.73C136.74 537.125 136.613 538.583 136.423 539.978H-108.175Z" fill="#86A5F3"/>
<path d="M-108.999 540.929H137.247L137.374 540.105C137.564 538.646 137.691 537.188 137.691 535.73V176.442C137.691 158.69 123.299 144.298 105.483 144.235H67.7603V145.503C67.7603 153.999 60.8498 160.846 52.4176 160.909H-25.5011C-33.9967 160.909 -40.8439 153.999 -40.9073 145.503V144.235H-77.2989C-95.0509 144.235 -109.443 158.627 -109.506 176.442V535.73C-109.506 537.188 -109.379 538.646 -109.189 540.105L-108.999 540.929ZM135.598 539.027H-107.287C-107.414 537.949 -107.477 536.808 -107.477 535.73V176.442C-107.477 159.705 -93.9097 146.2 -77.1721 146.137H-42.7459C-42.4289 155.457 -34.7575 162.811 -25.5011 162.811H52.4809C61.8008 162.811 69.4088 155.457 69.7258 146.137H105.483C122.221 146.137 135.725 159.705 135.789 176.442V535.73C135.789 536.808 135.725 537.949 135.598 539.027Z" fill="#1D1E1B"/>
<path d="M1.76092 539.28H-107.541C-107.731 537.886 -107.858 536.491 -107.858 535.033V404.175C-99.3621 395.87 -75.9675 378.435 -26.1351 373.743C40.1179 367.466 64.5903 407.979 52.3541 442.215C52.4175 442.215 24.7117 499.719 1.76092 539.28Z" fill="#67087E"/>
<path d="M-108.365 540.231H2.33157L2.58514 539.788C25.2823 500.606 52.9882 443.229 53.2418 442.659L53.3051 442.532C59.2013 426.048 56.6654 408.93 46.3946 395.743C32.4466 377.801 6.70617 369.685 -26.1984 372.792C-77.0452 377.61 -100.693 395.87 -108.492 403.478L-108.809 403.731V535.096C-108.809 536.554 -108.682 538.012 -108.492 539.407L-108.365 540.231ZM1.19034 538.329H-106.716C-106.843 537.252 -106.907 536.174 -106.907 535.033V404.555C-98.9817 396.884 -75.7139 379.386 -26.0717 374.631C6.13554 371.587 31.3054 379.449 44.8096 396.821C54.7 409.501 57.1092 425.921 51.4666 441.771C50.579 443.737 23.5705 499.719 1.19034 538.329Z" fill="#1D1E1B"/>
<path d="M136.042 311.801C117.466 282.764 32.8903 234.834 -3.62807 242.251C-40.1465 249.669 -82.3709 300.706 -82.3709 300.706C-82.3709 300.706 -52.8264 324.037 -60.8783 339.19C-68.8033 354.089 -75.4603 366.769 -80.7859 386.74C-80.7859 386.74 10.7003 468.019 34.3486 478.353C34.3486 478.353 89.5065 454.641 104.532 396.947C104.532 396.947 129.575 445.829 151.448 452.105C173.321 458.382 230.572 432.451 218.399 414.699L230.572 406.584L217.701 371.778L206.987 373.997C206.987 373.997 206.987 357.703 195.511 359.922C184.036 362.141 163.304 368.798 163.304 368.798C163.304 368.798 164.002 355.484 136.042 311.801Z" fill="#AB10D0"/>
<path d="M34.3485 479.304C34.4753 479.304 34.6021 479.304 34.7289 479.241C34.8557 479.177 48.8037 473.091 64.4001 460.03C78.4115 448.301 96.6073 428.33 104.786 399.547C109.985 409.184 131.541 447.414 151.131 453.056C153.731 453.754 156.394 454.071 159.12 454.007C178.14 454.007 208.382 441.454 217.892 428.14C221.315 423.449 221.886 418.884 219.667 414.953L231.079 407.345C231.459 407.091 231.586 406.648 231.459 406.204L218.589 371.397C218.462 370.953 217.955 370.7 217.511 370.763L207.874 372.729C207.684 370.129 206.923 363.789 202.993 360.556C200.964 358.844 198.364 358.273 195.321 358.907C185.494 360.809 168.693 366.008 164.128 367.466C163.621 363.155 160.198 347.749 136.866 311.231C127.8 297.029 102.884 277.882 73.4029 262.476C41.6395 245.802 12.7925 237.877 -3.81828 241.237C-40.2733 248.591 -82.6879 299.502 -83.1317 300.009C-83.4487 300.389 -83.3853 301.023 -83.0049 301.34C-82.6879 301.594 -54.1579 324.354 -61.7659 338.619C-69.5641 353.328 -76.3479 366.008 -81.7369 386.36C-81.8637 386.677 -81.7369 387.057 -81.4199 387.311C-77.6793 390.607 10.5101 468.78 33.9681 479.05C34.0949 479.241 34.2217 479.304 34.3485 479.304ZM104.532 395.996H104.406C104.025 396.06 103.708 396.313 103.581 396.694C95.9099 426.238 77.3971 446.653 63.1955 458.509C49.2475 470.238 36.6309 476.261 34.2851 477.275C11.3343 466.814 -72.9243 392.446 -79.8349 386.36C-74.5093 366.579 -67.8523 354.026 -60.1809 339.57C-52.5095 325.115 -76.4113 304.447 -81.1663 300.516C-75.8407 294.239 -36.9765 249.859 -3.56471 243.139C12.6023 239.842 41.0055 247.704 72.3885 264.188C101.616 279.467 126.215 298.36 135.091 312.308C162.353 354.977 162.163 368.608 162.163 368.734C162.163 369.051 162.29 369.368 162.543 369.559C162.797 369.749 163.114 369.812 163.431 369.685C163.621 369.622 184.29 363.028 195.575 360.809C198.047 360.302 200.076 360.746 201.661 362.077C205.845 365.501 205.909 373.87 205.909 373.933C205.909 374.44 206.353 374.884 206.86 374.884C206.923 374.884 206.987 374.884 207.05 374.884L217.004 372.855L229.367 406.14L217.828 413.875C217.638 414.002 217.448 414.256 217.448 414.509C217.384 414.763 217.448 415.016 217.575 415.207C219.92 418.63 219.54 422.624 216.37 426.999C205.655 441.898 168.186 455.909 151.702 451.154C130.526 445.068 105.61 396.947 105.357 396.44C105.23 396.187 104.913 395.996 104.532 395.996Z" fill="#1D1D1B"/>
<path d="M196.716 231.093H196.843C197.096 231.093 221.505 228.811 251.05 213.975C268.295 205.353 284.081 194.004 297.776 180.436C314.83 163.509 328.715 143.03 338.922 119.509C339.176 118.875 338.922 118.114 338.288 117.861C337.654 117.607 336.893 117.861 336.64 118.495C313.689 170.99 276.917 198.125 250.035 211.629C220.935 226.275 196.906 228.494 196.653 228.557C195.955 228.557 195.385 229.191 195.448 229.888C195.448 230.586 196.019 231.156 196.716 231.093Z" fill="#1D1D1B"/>
<path d="M115.818 211.756C115.818 211.756 127.42 227.86 137.183 217.018C146.947 206.177 167.615 182.782 185.431 196.223C203.246 209.664 203.563 214.355 216.814 205.796C230.064 197.237 278.692 224.753 249.655 257.911C202.042 312.245 93.6275 247.704 93.6275 247.704L98.5727 231.917L115.818 211.756Z" fill="#67087E"/>
<path d="M195.702 280.608C198.998 280.608 202.168 280.482 205.275 280.165C224.168 278.389 239.321 271.098 250.352 258.482C262.081 245.041 262.715 230.269 252.064 217.969C242.11 206.494 224.105 199.964 216.307 204.972C206.163 211.566 204.387 210.108 194.434 202.056C192.088 200.154 189.362 197.935 186.065 195.462C167.742 181.641 146.884 204.845 136.866 216.004L136.486 216.448C134.33 218.857 131.858 219.998 129.195 219.871C122.601 219.491 116.642 211.376 116.578 211.312L115.881 210.361L97.6851 231.6L92.4863 248.274L93.1203 248.655C93.3739 248.845 120.699 264.949 153.541 274.205C168.883 278.389 183.022 280.608 195.702 280.608ZM223.154 205.162C231.079 205.162 242.871 210.234 250.606 219.174C256.502 225.958 264.047 239.906 248.958 257.214C224.675 284.92 183.973 280.672 154.048 272.176C124.25 263.744 99.0799 249.669 94.7687 247.197L99.3969 232.361L115.754 213.214C117.656 215.56 122.982 221.329 129.068 221.646C132.302 221.837 135.281 220.442 137.817 217.589L138.198 217.145C147.835 206.43 167.932 184.114 184.797 196.857C188.094 199.393 190.756 201.549 193.102 203.451C203.183 211.629 205.909 213.848 217.194 206.494C219.096 205.543 221.125 205.099 223.154 205.162Z" fill="black"/>
<path d="M212.503 278.199C161.973 238.194 104.152 240.793 104.152 240.793C101.806 243.71 100.158 247.133 99.3335 250.81C116.515 260.13 169.708 285.997 212.503 278.199Z" fill="#313D7E"/>
<path d="M78.0946 184.748C67.8352 184.748 59.5183 176.431 59.5183 166.171C59.5183 155.912 67.8352 147.595 78.0946 147.595C88.3539 147.595 96.6707 155.912 96.6707 166.171C96.6707 176.431 88.3539 184.748 78.0946 184.748Z" fill="#67087E"/>
<path d="M79.4259 147.659C69.2185 146.898 60.3425 154.569 59.5817 164.777C58.8209 174.984 66.4923 183.86 76.6998 184.621C86.9072 185.382 95.7831 177.71 96.5439 167.503C96.9877 161.163 94.1981 155.076 89.1261 151.272C86.3365 149.18 82.9763 147.976 79.4259 147.659ZM79.5528 146.264C90.521 147.088 98.7629 156.661 98.0021 167.63C97.1779 178.598 87.6045 186.84 76.6363 186.079C65.6681 185.255 57.4261 175.681 58.1869 164.713C58.4405 160.909 59.8354 157.295 62.1177 154.252C66.1119 148.8 72.7056 145.757 79.5528 146.264Z" fill="black"/>
<path d="M119.051 231.917C119.051 231.917 133.696 223.168 130.273 210.805C126.849 198.442 123.743 198.886 122.348 192.292C120.953 185.699 110.936 177.457 100.285 178.598C100.285 178.598 89.3797 166.932 77.4605 167.883C65.5413 168.834 60.5961 173.526 55.7777 181.831C50.9593 190.137 47.0285 193.56 43.4781 199.266C39.9277 204.972 33.0805 221.71 55.0169 238.764C76.9533 255.819 119.051 231.917 119.051 231.917Z" fill="#67087E"/>
<path d="M75.4951 245.865C82.2789 245.738 89.0627 244.661 95.5295 242.695C103.835 240.223 111.887 236.926 119.495 232.805C120.129 232.424 134.711 223.485 131.16 210.615C129.258 203.641 127.356 200.661 125.898 198.252C124.63 196.413 123.743 194.321 123.299 192.165C121.777 184.811 111.443 176.823 100.665 177.71C98.6995 175.745 88.6189 166.108 77.3971 166.996C65.0975 167.947 59.8353 173.019 55.0169 181.451C52.7979 185.255 50.3253 188.869 47.5357 192.229C45.8239 194.384 44.1755 196.603 42.7173 198.886C39.6107 203.894 31.2419 221.583 54.5097 239.652C59.8987 243.71 66.9995 245.865 75.4951 245.865ZM118.607 231.093C117.72 231.6 76.7631 254.424 55.7143 238.004C33.7145 220.886 41.4493 204.402 44.3657 199.773C45.8239 197.554 47.4089 195.335 49.0573 193.307C51.8469 189.82 54.3829 186.142 56.6653 182.338C61.3569 174.287 66.0485 169.722 77.5873 168.834C88.8725 167.947 99.5237 179.168 99.6505 179.295L99.9675 179.612L100.475 179.549C110.936 178.408 120.256 186.459 121.46 192.482C121.967 194.892 122.918 197.174 124.313 199.203C125.771 201.485 127.483 204.338 129.385 211.059C132.555 222.471 118.988 230.839 118.607 231.093Z" fill="black"/>
<path d="M76.1926 211.693C67.9506 210.361 61.4204 201.041 61.1668 200.661C60.9132 200.344 60.9766 199.9 61.2936 199.647C61.6106 199.393 62.0543 199.456 62.3079 199.773L62.3713 199.837C62.4347 199.9 68.8381 209.03 76.4461 210.298C76.8265 210.361 77.0801 210.742 77.0167 211.122C76.8899 211.439 76.573 211.693 76.1926 211.693Z" fill="black"/>
<path d="M83.6737 265.075C83.6737 265.075 92.2327 274.712 80.1867 279.974C68.1407 285.237 61.6739 275.156 61.6739 275.156C61.6739 275.156 23.0633 279.467 43.0343 251.508L83.6737 265.075Z" fill="white"/>
<path d="M73.5297 282.447C75.9389 282.447 78.3481 281.876 80.6305 280.862C84.4979 279.214 86.8437 276.868 87.4777 273.951C88.5555 269.133 84.6247 264.695 84.4345 264.505L84.2443 264.315L83.9907 264.251L42.7173 250.43L42.3369 251.001C36.6309 258.989 35.0459 265.329 37.6453 269.704C42.2101 277.502 58.0601 276.487 61.2935 276.17C62.4981 277.692 66.6825 282.447 73.5297 282.447ZM83.1665 265.963C83.8005 266.787 86.3365 270.211 85.5757 273.571C85.0685 275.853 83.1665 277.692 79.8697 279.15C68.7113 283.969 62.8151 275.093 62.5615 274.712L62.2445 274.205L61.6739 274.268C61.4837 274.268 43.6683 276.17 39.2937 268.753C37.2015 265.139 38.5963 259.75 43.4781 252.649L83.1665 265.963Z" fill="#1D1D1B"/>
<path d="M76.4461 206.367C74.5441 206.24 72.7055 205.796 70.9937 205.162C70.6133 205.036 70.4865 204.592 70.6133 204.275C70.7401 203.958 71.1205 203.768 71.4375 203.894C86.7169 209.283 94.3883 194.194 94.7053 193.497C94.8955 193.116 95.2759 192.99 95.6563 193.18C95.9733 193.37 96.1635 193.75 95.9733 194.131C95.9099 194.258 89.3163 207.318 76.4461 206.367Z" fill="white"/>
<path d="M77.7775 206.747C90.0137 206.747 96.2269 194.384 96.2903 194.258C96.5439 193.75 96.3537 193.116 95.9099 192.863C95.4661 192.609 94.7687 192.799 94.5151 193.243C94.5151 193.243 94.4517 193.307 94.4517 193.37C94.1347 194.004 86.5901 208.903 71.5643 203.577C71.0571 203.387 70.4865 203.704 70.2963 204.211C70.1061 204.719 70.4231 205.289 70.9303 205.479C72.7055 206.113 74.6075 206.557 76.5095 206.684C76.8899 206.684 77.3337 206.747 77.7775 206.747ZM95.3393 193.433C95.4027 193.433 95.4661 193.433 95.5295 193.497C95.7197 193.56 95.7831 193.814 95.7197 194.004C95.6563 194.131 89.1895 207.064 76.5095 206.113C74.6709 205.987 72.8323 205.606 71.1205 204.972C70.9303 204.909 70.8035 204.655 70.8669 204.465C70.9303 204.338 70.9937 204.275 71.0571 204.211C71.1205 204.148 71.2473 204.148 71.3741 204.211C86.9071 209.727 94.7053 194.321 95.0223 193.687C95.0223 193.497 95.1491 193.433 95.3393 193.433Z" fill="white"/>
<path d="M66.2387 160.148C66.1119 160.148 65.9851 160.085 65.9217 160.022C65.6047 159.831 65.4779 159.388 65.7315 159.071C68.3309 155.013 71.5009 152.667 75.1147 152.097C81.0743 151.146 86.0829 155.14 86.2731 155.267C86.5901 155.52 86.5901 155.964 86.3365 156.281C86.0829 156.598 85.7025 156.598 85.3855 156.408C85.3221 156.344 80.6305 152.667 75.3049 153.491C72.0715 154.062 69.2185 156.154 66.8727 159.895C66.7459 160.022 66.4923 160.148 66.2387 160.148Z" fill="white"/>
<path d="M66.2387 160.465C66.5557 160.465 66.9361 160.275 67.1263 160.022C69.4087 156.408 72.1983 154.316 75.3683 153.808C80.5037 152.984 85.1319 156.598 85.1953 156.598C85.6391 156.915 86.2731 156.788 86.5901 156.344C86.8437 155.901 86.7803 155.393 86.4633 155.013C86.2731 154.823 81.0743 150.765 75.0513 151.78C71.3107 152.414 68.0774 154.823 65.4146 158.944C65.0976 159.388 65.2244 160.022 65.7316 160.339C65.8584 160.402 66.0485 160.465 66.1753 160.465H66.2387ZM76.9533 153.048C76.3827 153.048 75.8122 153.111 75.2416 153.174C71.8814 153.745 68.9649 155.901 66.5557 159.705C66.4923 159.831 66.3655 159.895 66.1753 159.895C65.9851 159.895 65.8583 159.768 65.8583 159.578C65.8583 159.451 65.8583 159.388 65.9217 159.261C68.4577 155.267 71.5643 152.984 75.1147 152.414C80.8841 151.463 85.8294 155.393 86.0196 155.52C86.2098 155.647 86.2097 155.901 86.0829 156.091C85.9561 156.281 85.7025 156.281 85.5123 156.154C85.5123 156.091 81.6449 153.048 76.9533 153.048Z" fill="white"/>
<path d="M80.3135 254.488L82.8495 264.632C82.8495 264.632 60.7863 283.778 46.8383 251.825C46.8383 251.825 55.5875 246.119 63.5125 226.084C63.5125 226.084 54.6365 222.978 57.1091 214.989C59.5817 207.001 66.3021 206.43 69.9159 209.093C69.9159 209.093 83.7371 221.52 103.138 191.848C103.138 191.848 118.417 200.471 119.685 217.525C120.953 234.58 115.247 253.473 101.806 257.467C88.3653 261.462 80.3135 254.488 80.3135 254.488Z" fill="#FFCDB2"/>
<path d="M103.074 191.848C92.5497 208.015 83.6103 211.693 77.7141 211.693C74.8611 211.756 72.135 210.868 69.8526 209.093C68.5846 208.142 66.9996 207.635 65.4146 207.635C62.1812 207.635 58.6942 209.664 57.0458 214.926C54.5732 222.914 63.4491 226.021 63.4491 226.021C55.5241 246.055 46.7749 251.761 46.7749 251.761C53.1149 266.343 61.1667 270.274 68.0139 270.274C76.2559 270.274 82.7861 264.568 82.7861 264.568L80.2501 254.424C80.2501 254.424 85.132 258.672 93.6276 258.672C96.3538 258.672 99.08 258.228 101.743 257.467C115.247 253.473 120.89 234.643 119.622 217.525C118.354 200.407 103.138 191.848 103.074 191.848ZM102.504 189.312L104.025 190.2C104.659 190.58 120.192 199.52 121.587 217.399C122.284 226.592 121.016 235.721 118.037 243.139C114.613 251.698 109.161 257.277 102.313 259.306C99.5237 260.13 96.6073 260.574 93.6909 260.574C90.0771 260.574 86.5267 259.877 83.2933 258.418L84.7516 264.188L85.0686 265.329L84.1809 266.09C83.8639 266.343 77.0168 272.24 68.1408 272.24C63.7662 272.24 59.5817 270.781 56.1581 268.055C51.9103 264.758 48.1698 259.56 45.1266 252.586L44.4926 251.127L45.8239 250.24C45.8873 250.176 53.7489 244.787 61.1033 227.099C57.5529 225.197 53.3051 220.949 55.3339 214.419C56.9823 209.03 60.7863 205.733 65.4779 205.733C67.5067 205.733 69.4721 206.367 71.0571 207.572L71.1206 207.635L71.1839 207.698C73.0859 209.093 75.3684 209.854 77.7776 209.791C82.9764 209.791 91.3452 206.494 101.553 190.771L102.504 189.312Z" fill="#1D1D1B"/>
<path d="M80.4403 255.946C80.3769 255.946 80.3135 255.946 80.2501 255.882C72.9591 252.839 68.0773 244.534 67.8871 244.217C67.6969 243.9 67.7603 243.456 68.0773 243.266C68.3943 243.076 68.8381 243.139 69.0283 243.456C69.0283 243.456 69.0283 243.519 69.0917 243.519C69.1551 243.583 73.9101 251.761 80.7573 254.614C81.1377 254.741 81.2645 255.185 81.1377 255.565C81.0109 255.756 80.6939 255.946 80.4403 255.946Z" fill="black"/>
<path d="M63.9563 222.28C63.7027 222.28 63.4492 222.09 63.3858 221.837C61.9276 218.603 61.8008 216.004 63.0688 214.229C64.844 211.629 68.648 211.756 68.7748 211.756C69.1552 211.756 69.4721 212.073 69.4721 212.453C69.4721 212.834 69.1552 213.151 68.7748 213.151C68.7114 213.151 65.6047 213.087 64.2733 214.989C63.3223 216.384 63.5125 218.476 64.7171 221.266C64.8439 221.646 64.7172 222.027 64.3368 222.217C64.21 222.28 64.0831 222.344 63.9563 222.28Z" fill="black"/>
<path d="M100.538 216.765C90.9647 216.765 79.4893 210.171 76.6997 212.961C73.9101 215.75 74.6075 220.505 79.2991 222.597C83.9907 224.69 88.9993 225.641 99.2067 226.972C109.414 228.303 119.558 228.874 119.558 223.231C119.558 217.589 114.613 216.701 100.538 216.765Z" fill="#FFB49F"/>
<path d="M112.394 213.087C112.204 213.087 112.014 212.961 111.887 212.77C111.887 212.707 109.351 209.41 105.927 209.41C105.547 209.474 105.166 209.157 105.166 208.776C105.103 208.396 105.42 208.015 105.8 208.015C105.864 208.015 105.864 208.015 105.927 208.015C110.048 208.015 112.901 211.819 113.028 211.946C113.282 212.263 113.155 212.707 112.838 212.961C112.711 213.024 112.521 213.087 112.394 213.087Z" fill="black"/>
<path d="M100.285 233.883C99.9675 233.819 99.7139 233.566 99.6505 233.249L97.6217 217.969C97.5583 217.589 97.8753 217.208 98.2557 217.208C98.6361 217.145 98.9531 217.399 99.0165 217.779L101.045 233.058C101.109 233.439 100.855 233.819 100.475 233.819L100.285 233.883Z" fill="black"/>
<path d="M59.7719 228.367C58.0912 228.367 56.7287 227.004 56.7287 225.324C56.7287 223.643 58.0912 222.28 59.7719 222.28C61.4527 222.28 62.8151 223.643 62.8151 225.324C62.8151 227.004 61.4527 228.367 59.7719 228.367Z" fill="#AB10D0"/>
<path d="M60.0255 222.28C58.3771 222.154 56.9189 223.422 56.7921 225.07C56.7287 226.084 57.1725 227.099 57.9967 227.733C58.4405 228.113 59.0111 228.303 59.5817 228.303C61.2301 228.43 62.6883 227.162 62.8151 225.514C62.8785 224.499 62.4347 223.485 61.6105 222.851C61.1667 222.534 60.5961 222.344 60.0255 222.28ZM60.0889 220.886C62.5615 221.076 64.4001 223.168 64.2099 225.641C64.0197 228.113 61.9275 229.952 59.4549 229.762C56.9823 229.571 55.1437 227.479 55.3339 225.007C55.3973 224.182 55.7143 223.358 56.2215 222.661C57.1725 221.456 58.6307 220.822 60.0889 220.886Z" fill="black"/>
<path d="M94.9589 207.572C94.7687 207.572 94.5785 207.445 94.4517 207.318C94.0079 206.811 92.6131 205.416 91.5987 205.733C91.2183 205.86 90.8379 205.606 90.7111 205.226C90.5843 204.845 90.8379 204.465 91.2183 204.338C93.3105 203.768 95.3394 206.177 95.5296 206.43C95.7832 206.747 95.7197 207.191 95.4027 207.445C95.3393 207.572 95.1491 207.635 94.9589 207.572Z" fill="black"/>
<path d="M231.079 249.225C236.214 249.225 249.528 248.655 266.583 243.963C295.176 235.975 320.79 219.808 340.19 197.301C340.571 196.73 340.444 195.969 339.937 195.526C339.429 195.145 338.732 195.209 338.288 195.652C319.205 217.716 294.098 233.692 265.949 241.491C244.71 247.387 228.987 246.689 228.86 246.689C228.162 246.626 227.592 247.197 227.528 247.894C227.465 248.591 228.036 249.162 228.733 249.225C228.923 249.162 229.684 249.225 231.079 249.225Z" fill="#1D1D1B"/>
<path d="M-3.24769 365.247C-5.24352 365.247 -6.86146 363.629 -6.86146 361.634C-6.86146 359.638 -5.24352 358.02 -3.24769 358.02C-1.25186 358.02 0.366119 359.638 0.366119 361.634C0.366119 363.629 -1.25186 365.247 -3.24769 365.247Z" fill="white"/>
<path d="M86.6535 359.922C84.6577 359.922 83.0397 358.304 83.0397 356.308C83.0397 354.312 84.6577 352.694 86.6535 352.694C88.6494 352.694 90.2673 354.312 90.2673 356.308C90.2673 358.304 88.6494 359.922 86.6535 359.922Z" fill="white"/>
<path d="M68.0139 424.526C66.0181 424.526 64.4001 422.908 64.4001 420.913C64.4001 418.917 66.0181 417.299 68.0139 417.299C70.0098 417.299 71.6277 418.917 71.6277 420.913C71.6277 422.908 70.0098 424.526 68.0139 424.526Z" fill="white"/>
<path d="M45.3802 390.544C43.3843 390.544 41.7663 388.926 41.7663 386.93C41.7663 384.934 43.3843 383.316 45.3802 383.316C47.376 383.316 48.994 384.934 48.994 386.93C48.994 388.926 47.376 390.544 45.3802 390.544Z" fill="white"/>
<path d="M23.3803 449.189C21.3845 449.189 19.7665 447.571 19.7665 445.575C19.7665 443.579 21.3845 441.961 23.3803 441.961C25.3761 441.961 26.9941 443.579 26.9941 445.575C26.9941 447.571 25.3761 449.189 23.3803 449.189Z" fill="white"/>
<path d="M7.40353 305.968C5.4077 305.968 3.78973 304.35 3.78973 302.355C3.78973 300.359 5.4077 298.741 7.40353 298.741C9.39937 298.741 11.0173 300.359 11.0173 302.355C11.0173 304.35 9.39937 305.968 7.40353 305.968Z" fill="white"/>
<path d="M30.7347 341.282C28.7389 341.282 27.1209 339.664 27.1209 337.668C27.1209 335.673 28.7389 334.055 30.7347 334.055C32.7306 334.055 34.3485 335.673 34.3485 337.668C34.3485 339.664 32.7306 341.282 30.7347 341.282Z" fill="white"/>
<path d="M99.3335 312.625C97.3377 312.625 95.7197 311.007 95.7197 309.012C95.7197 307.016 97.3377 305.398 99.3335 305.398C101.329 305.398 102.947 307.016 102.947 309.012C102.947 311.007 101.329 312.625 99.3335 312.625Z" fill="white"/>
<path d="M140.607 416.538C138.611 416.538 136.993 414.92 136.993 412.924C136.993 410.928 138.611 409.31 140.607 409.31C142.603 409.31 144.221 410.928 144.221 412.924C144.221 414.92 142.603 416.538 140.607 416.538Z" fill="white"/>
<path d="M183.275 390.544C181.279 390.544 179.661 388.926 179.661 386.93C179.661 384.934 181.279 383.316 183.275 383.316C185.271 383.316 186.889 384.934 186.889 386.93C186.889 388.926 185.271 390.544 183.275 390.544Z" fill="white"/>
<path d="M194.624 419.898C192.628 419.898 191.01 418.28 191.01 416.284C191.01 414.289 192.628 412.671 194.624 412.671C196.62 412.671 198.238 414.289 198.238 416.284C198.238 418.28 196.62 419.898 194.624 419.898Z" fill="white"/>
<path d="M4.0433 267.294C2.04746 267.294 0.429527 265.676 0.429527 263.681C0.429527 261.685 2.04746 260.067 4.0433 260.067C6.03913 260.067 7.6571 261.685 7.6571 263.681C7.6571 265.676 6.03913 267.294 4.0433 267.294Z" fill="white"/>
<path d="M228.987 406.077L217.004 372.792L206.353 374.821C206.353 374.821 199.696 396.123 217.701 414.129L228.987 406.077Z" fill="#E89D00"/>
<path d="M218.526 371.778C218.526 371.778 232.157 315.478 254.79 340.902L282.116 331.519C282.116 331.519 295.747 340.775 277.107 355.04C277.107 355.04 281.355 364.93 276.473 373.553C276.473 373.553 283.828 383.063 270.133 393.207C255.298 404.175 230.064 405.189 230.064 405.189L218.526 371.778Z" fill="#FFCDB2"/>
<path d="M229.367 406.14H230.064C231.079 406.077 255.741 404.999 270.704 393.968C275.776 390.227 278.692 386.106 279.326 381.731C279.707 378.878 279.136 376.025 277.614 373.553C281.609 365.945 279.136 357.83 278.248 355.357C284.779 350.222 288.012 345.086 287.885 340.141C287.695 334.245 282.877 330.885 282.686 330.758L282.306 330.504L255.107 339.824C250.289 334.562 245.407 332.533 240.589 333.738C226.07 337.415 217.955 370.193 217.638 371.587L217.575 371.841L217.638 372.095L229.367 406.14ZM281.989 332.533C283.003 333.357 285.92 336.083 286.047 340.141C286.173 344.579 283.003 349.334 276.6 354.216L276.029 354.66L276.346 355.357C276.41 355.484 280.341 364.93 275.776 373.046L275.459 373.616L275.839 374.123C277.297 376.279 277.868 378.878 277.488 381.414C276.917 385.282 274.318 388.959 269.626 392.383C256.566 402.019 234.946 403.858 230.762 404.112L219.603 371.651C220.428 368.481 228.353 338.683 241.159 335.449C245.344 334.372 249.718 336.4 254.22 341.409L254.664 341.916L281.989 332.533Z" fill="#1D1D1B"/>
<path d="M267.534 395.489C260.179 399.42 248.387 395.362 251.177 387.754C253.522 381.414 257.517 380.083 257.517 380.083C257.517 380.083 243.505 380.083 247.499 368.1C251.494 356.118 276.156 354.786 276.156 354.786" fill="#FFCDB2"/>
<path d="M261.067 397.962C263.476 397.962 265.822 397.455 267.978 396.313C268.421 396.06 268.548 395.426 268.295 394.982C268.041 394.602 267.534 394.411 267.09 394.602C262.462 397.074 256.375 396.06 253.522 393.587C251.874 392.256 251.303 389.973 252.064 388.071C254.22 382.239 257.77 380.971 257.77 380.971C258.277 380.78 258.531 380.273 258.341 379.766C258.214 379.386 257.834 379.132 257.453 379.132C257.39 379.132 251.24 379.069 248.767 375.582C247.499 373.806 247.373 371.397 248.387 368.354C252.128 357.132 275.966 355.674 276.156 355.674C276.663 355.674 277.107 355.167 277.044 354.66C276.98 354.152 276.537 353.709 276.029 353.772C275.015 353.835 250.669 355.294 246.548 367.72C245.344 371.334 245.534 374.377 247.182 376.659C249.021 379.195 252.254 380.273 254.6 380.654C252.571 382.429 251.05 384.775 250.226 387.311C249.148 389.973 249.909 393.08 252.191 394.919C254.41 396.947 257.707 397.962 261.067 397.962Z" fill="#1D1D1B"/>
<path d="M256.122 380.907C256.185 380.907 256.312 380.907 256.375 380.844L276.727 374.631C277.234 374.504 277.488 373.933 277.361 373.426C277.234 372.919 276.663 372.665 276.156 372.792L255.805 379.005C255.298 379.195 255.044 379.703 255.171 380.21C255.361 380.717 255.741 380.971 256.122 380.907Z" fill="#1D1D1B"/>
<path d="M254.79 340.902C254.79 340.902 268.802 352.124 263.476 360.809C258.151 369.495 236.151 352.124 236.151 352.124" fill="#FFCDB2"/>
<path d="M258.658 364.106C259.165 364.106 259.672 364.043 260.179 363.979C261.891 363.726 263.413 362.711 264.3 361.253C270.006 351.997 255.995 340.585 255.424 340.141C255.044 339.824 254.41 339.887 254.093 340.268C253.776 340.648 253.839 341.282 254.22 341.599C254.347 341.726 267.534 352.377 262.715 360.239C262.081 361.253 261.067 361.951 259.862 362.141C259.419 362.204 259.038 362.268 258.594 362.268C250.733 362.268 236.975 351.49 236.785 351.363C236.341 351.046 235.77 351.109 235.453 351.553C235.136 351.997 235.2 352.567 235.644 352.884C236.214 353.328 250.035 364.106 258.658 364.106Z" fill="#1D1D1B"/>
<path d="M102.25 481.333H11.3343C2.77528 481.333 -4.19872 488.307 -4.19872 496.866V512.462C-4.19872 521.021 2.77528 527.995 11.3343 527.995H102.25C110.809 527.995 117.783 521.021 117.783 512.462V496.866C117.719 488.307 110.809 481.333 102.25 481.333Z" fill="#AB10D0"/>
<path d="M11.3343 528.946H102.25C111.38 528.946 118.734 521.592 118.734 512.462V496.866C118.734 487.736 111.38 480.382 102.25 480.382H11.3343C2.2047 480.382 -5.1497 487.736 -5.1497 496.866V512.462C-5.1497 521.592 2.2047 528.946 11.3343 528.946ZM102.25 482.284C110.302 482.284 116.832 488.814 116.832 496.866V512.462C116.832 520.514 110.302 527.044 102.25 527.044H11.3343C3.2825 527.044 -3.2477 520.514 -3.2477 512.462V496.802C-3.2477 488.751 3.2825 482.22 11.3343 482.22L102.25 482.284Z" fill="#1D1D1B"/>
<path d="M39.484 434.734H-89.218C-96.6992 434.734 -102.786 440.82 -102.786 448.301V449.126C-102.786 456.607 -96.6992 462.693 -89.218 462.693H39.484C46.9652 462.693 53.0516 456.607 53.0516 449.126V448.301C53.115 440.82 47.0286 434.734 39.484 434.734Z" fill="#86A5F3"/>
<path d="M-89.2181 463.644H39.4839C47.5357 463.644 54.0659 457.177 54.0659 449.126V448.301C54.0659 440.25 47.5357 433.783 39.4839 433.783H-89.2181C-97.2699 433.783 -103.737 440.313 -103.737 448.301V449.126C-103.737 457.114 -97.2699 463.644 -89.2181 463.644ZM39.4839 435.685C46.4579 435.685 52.1639 441.327 52.1639 448.301V449.126C52.1639 456.1 46.4579 461.742 39.4839 461.742H-89.2181C-96.1921 461.742 -101.835 456.1 -101.835 449.126V448.301C-101.835 441.327 -96.1921 435.685 -89.2181 435.685H39.4839Z" fill="#1D1E1B"/>
<path d="M39.484 396.757H-89.218C-96.6992 396.757 -102.786 402.844 -102.786 410.325V411.149C-102.786 418.63 -96.6992 424.717 -89.218 424.717H39.484C46.9652 424.717 53.0516 418.63 53.0516 411.149V410.325C53.115 402.844 47.0286 396.757 39.484 396.757Z" fill="#86A5F3"/>
<path d="M-89.2181 425.668H39.4839C47.5357 425.668 54.0659 419.201 54.0659 411.149V410.325C54.0659 402.273 47.5357 395.806 39.4839 395.806H-89.2181C-97.2699 395.806 -103.737 402.336 -103.737 410.325V411.149C-103.737 419.137 -97.2699 425.668 -89.2181 425.668ZM39.4839 397.708C46.4579 397.708 52.1639 403.351 52.1639 410.325V411.149C52.1639 418.123 46.4579 423.766 39.4839 423.766H-89.2181C-96.1921 423.766 -101.835 418.123 -101.835 411.149V410.325C-101.835 403.351 -96.1921 397.708 -89.2181 397.708H39.4839Z" fill="#1D1E1B"/>
<path d="M-27.2129 142.46L58.0601 141.826C59.1379 141.826 59.9621 141.002 59.9621 139.924C59.9621 138.846 59.1379 138.022 58.0601 138.022L-27.2129 138.656C-28.2907 138.656 -29.1149 139.48 -29.1149 140.558C-29.1149 141.636 -28.2273 142.46 -27.2129 142.46Z" fill="white"/>
<path d="M102.06 406.077C102.44 406.077 102.757 405.887 102.947 405.506C109.921 389.973 113.916 353.709 114.042 352.124C114.106 351.616 113.725 351.109 113.218 351.046C112.711 350.982 112.204 351.363 112.14 351.87C112.077 352.25 108.019 389.403 101.172 404.619C100.982 405.126 101.172 405.697 101.679 405.887C101.743 406.077 101.933 406.14 102.06 406.077Z" fill="#1D1E1B"/>
<path d="M107.071 223.114C106.746 221.109 108.107 219.221 110.112 218.895C112.117 218.57 114.006 219.931 114.331 221.936C114.656 223.941 113.295 225.83 111.29 226.155C109.285 226.48 107.397 225.119 107.071 223.114Z" fill="#1D1D1B"/>
<path d="M86.3999 222.534C84.3692 222.534 82.7227 220.888 82.7227 218.857C82.7227 216.826 84.3692 215.18 86.3999 215.18C88.4306 215.18 90.0771 216.826 90.0771 218.857C90.0771 220.888 88.4306 222.534 86.3999 222.534Z" fill="#1D1D1B"/>
<path d="M110.365 221.837C109.805 221.837 109.351 221.383 109.351 220.822C109.351 220.262 109.805 219.808 110.365 219.808C110.926 219.808 111.38 220.262 111.38 220.822C111.38 221.383 110.926 221.837 110.365 221.837Z" fill="white"/>
<path d="M108.717 223.802C108.367 223.802 108.083 223.518 108.083 223.168C108.083 222.818 108.367 222.534 108.717 222.534C109.067 222.534 109.351 222.818 109.351 223.168C109.351 223.518 109.067 223.802 108.717 223.802Z" fill="white"/>
<path d="M87.0973 218.54C86.5368 218.54 86.0829 218.086 86.0829 217.525C86.0829 216.965 86.5368 216.511 87.0973 216.511C87.6578 216.511 88.1117 216.965 88.1117 217.525C88.1117 218.086 87.6578 218.54 87.0973 218.54Z" fill="white"/>
<path d="M85.4489 220.442C85.0989 220.442 84.8149 220.158 84.8149 219.808C84.8149 219.458 85.0989 219.174 85.4489 219.174C85.7989 219.174 86.0829 219.458 86.0829 219.808C86.0829 220.158 85.7989 220.442 85.4489 220.442Z" fill="white"/>
<path d="M81.2012 245.548C81.7084 245.548 82.1522 245.104 82.1522 244.597C82.1522 244.217 81.962 243.9 81.645 243.773C79.9332 242.885 79.5528 239.969 79.5528 237.687C84.4346 242.505 93.1204 241.491 93.5642 241.427C94.0714 241.364 94.4518 240.857 94.3884 240.349C94.325 239.842 93.8178 239.462 93.3106 239.525C93.1838 239.525 83.23 240.73 79.5528 234.643C79.2992 234.2 78.7286 234.073 78.2848 234.326C78.0312 234.453 77.841 234.707 77.841 235.024C77.7776 235.341 76.6364 243.329 80.7573 245.485C80.8842 245.548 81.011 245.548 81.2012 245.548Z" fill="black"/>
<path d="M20.4006 499.212H89.0628C90.1406 499.212 90.9648 498.387 90.9648 497.31C90.9648 496.232 90.1406 495.408 89.0628 495.408H20.3371C19.2593 495.408 18.4351 496.232 18.4351 497.31C18.4351 498.387 19.3228 499.212 20.4006 499.212Z" fill="white"/>
<path d="M48.8038 513.54H88.8726C89.9504 513.54 90.7746 512.716 90.7746 511.638C90.7746 510.56 89.9504 509.736 88.8726 509.736H48.8038C47.726 509.736 46.9018 510.56 46.9018 511.638C46.9018 512.716 47.726 513.54 48.8038 513.54Z" fill="white"/>
<path d="M177.316 474.929C205.529 474.929 221.886 463.644 230.698 454.134C240.399 443.61 243.125 433.149 243.252 432.705C243.442 432.008 242.998 431.31 242.364 431.183C241.73 431.057 240.969 431.437 240.842 432.071C240.842 432.198 238.116 442.469 228.796 452.549C220.364 461.679 204.641 472.457 177.379 472.457H176.111C175.414 472.457 174.843 473.027 174.843 473.725C174.843 474.422 175.414 474.993 176.111 474.993L177.316 474.929Z" fill="#1D1D1B"/>
<path d="M150.054 364.994C150.18 364.994 150.371 364.994 150.497 364.93C151.512 364.677 152.146 363.662 151.892 362.648C144.918 333.611 130.526 315.605 119.685 305.651C107.893 294.81 97.812 290.879 97.4316 290.689C96.4806 290.309 95.3393 290.752 94.9589 291.703C94.5785 292.654 95.0223 293.796 95.9733 294.176H96.0368C96.227 294.239 105.991 298.107 117.212 308.504C127.61 318.141 141.431 335.449 148.152 363.472C148.405 364.36 149.166 364.994 150.054 364.994Z" fill="white"/>
<path d="M199.252 50.9736H152.716C146.63 50.9736 141.685 55.9188 141.685 62.0052V108.541C141.685 114.627 146.63 119.572 152.716 119.572H199.252C205.338 119.572 210.284 114.627 210.284 108.541V62.0052C210.347 55.9188 205.402 50.9736 199.252 50.9736Z" fill="#86A5F3"/>
<path d="M152.78 120.523H199.252C205.909 120.523 211.298 115.134 211.298 108.541V62.0052C211.298 55.3482 205.909 50.0226 199.252 50.0226H152.716C146.123 50.086 140.734 55.4116 140.734 62.0052V108.541C140.797 115.134 146.123 120.523 152.78 120.523ZM199.252 51.9246C204.831 51.9246 209.396 56.426 209.396 62.0052V108.541C209.396 114.12 204.831 118.621 199.252 118.621H152.716C147.137 118.621 142.636 114.057 142.636 108.541V62.0052C142.636 56.426 147.201 51.9246 152.716 51.9246H199.252Z" fill="#1D1E1B"/>
<path d="M176.365 108.858C163.129 108.858 152.399 98.128 152.399 84.8926C152.399 71.6572 163.129 60.9274 176.365 60.9274C189.6 60.9274 200.33 71.6572 200.33 84.8926C200.33 98.128 189.6 108.858 176.365 108.858Z" fill="#67087E"/>
<path d="M176.365 109.872C190.122 109.872 201.281 98.7138 201.281 84.956C201.281 71.1982 190.122 60.0398 176.365 60.0398C162.607 60.0398 151.448 71.1982 151.448 84.956C151.448 98.7138 162.607 109.872 176.365 109.872ZM176.365 61.8784C189.108 61.8784 199.379 72.2126 199.379 84.8926C199.379 97.5726 189.045 107.907 176.365 107.907C163.685 107.907 153.35 97.636 153.35 84.8926C153.35 72.2126 163.621 61.8784 176.365 61.8784Z" fill="black"/>
<path d="M174.906 60.9908C174.906 60.9908 200.71 85.5266 177.569 108.858L174.906 60.9908Z" fill="#67087E"/>
<path d="M178.203 109.555C184.924 102.835 188.22 95.2902 188.094 87.175C187.84 72.2126 175.984 60.7372 175.477 60.2934L174.146 61.6882C174.272 61.815 185.938 73.1002 186.128 87.2384C186.255 94.783 183.085 101.82 176.745 108.224L178.203 109.555Z" fill="black"/>
<path d="M175.477 95.734C177.759 95.734 180.105 95.5438 182.388 95.1634C188.728 94.149 194.814 92.1836 200.52 89.3306L199.632 87.6822C199.315 87.8724 168.44 103.913 153.16 83.3076L151.639 84.4488C157.154 91.8666 165.333 95.734 175.477 95.734Z" fill="black"/>
<path d="M130.082 66.3164L131.984 66.1896C131.35 53.89 134.204 45.2676 140.29 40.576C149.673 33.3484 163.875 37.7864 164.065 37.8498L164.635 36.0112C164.001 35.821 149.356 31.2562 139.149 39.0544C132.492 44.1898 129.448 53.3194 130.082 66.3164Z" fill="black"/>
<path d="M197.033 131.175C210.791 131.175 220.428 128.005 225.753 121.791C228.86 118.241 230.381 113.486 229.938 108.794L228.036 109.111C228.353 113.296 227.021 117.48 224.232 120.65C219.286 126.42 210.093 129.336 196.97 129.336L197.033 131.175Z" fill="black"/>
<path d="M384.824 244.851H314.386C305.13 244.851 297.649 252.332 297.649 261.588V332.026C297.649 341.282 305.13 348.763 314.386 348.763H384.824C394.08 348.763 401.561 341.282 401.561 332.026V261.588C401.561 252.332 394.08 244.851 384.824 244.851Z" fill="#86A5F3"/>
<path d="M314.386 349.714H384.824C394.587 349.714 402.512 341.789 402.512 332.026V261.588C402.512 251.825 394.587 243.9 384.824 243.9H314.386C304.623 243.9 296.698 251.825 296.698 261.588V332.026C296.698 341.789 304.623 349.714 314.386 349.714ZM384.824 245.802C393.573 245.802 400.61 252.903 400.61 261.588V332.026C400.61 340.775 393.51 347.812 384.824 347.812H314.386C305.637 347.812 298.6 340.712 298.6 332.026V261.588C298.6 252.903 305.701 245.802 314.386 245.802H384.824Z" fill="#1D1E1B"/>
<path d="M385.965 364.804C400.737 364.804 411.325 361.063 417.475 353.645C425.907 343.501 422.864 330.377 422.737 329.807C422.61 329.109 421.976 328.666 421.279 328.792C420.581 328.919 420.138 329.553 420.264 330.251C420.264 330.314 420.264 330.377 420.328 330.377C420.391 330.568 423.181 342.867 415.509 351.997C409.169 359.605 397.504 363.028 380.956 362.141C380.259 362.077 379.688 362.648 379.625 363.345C379.562 364.043 380.132 364.613 380.83 364.677C382.605 364.804 384.317 364.804 385.965 364.804Z" fill="#1D1D1B"/>
<path d="M303.291 277.058H303.418C304.496 276.995 305.257 276.107 305.193 275.093C304.813 268.309 306.525 262.983 310.202 259.243C316.796 252.649 327.7 253.093 327.827 253.093C328.905 253.156 329.793 252.332 329.856 251.318C329.919 250.303 329.095 249.352 328.081 249.289C327.574 249.289 315.401 248.718 307.603 256.516C303.101 261.018 301.009 267.358 301.453 275.219C301.389 276.234 302.277 277.058 303.291 277.058Z" fill="white"/>
<path d="M350.518 282.139L339.883 314.553H331.316L345.845 275.452H351.297L350.518 282.139ZM359.354 314.553L348.692 282.139L347.833 275.452H353.338L367.947 314.553H359.354ZM358.87 299.997V306.309H338.218V299.997H358.87Z" fill="black"/>
</svg>
