<svg width="369" height="407" viewBox="0 0 369 407" fill="none" xmlns="http://www.w3.org/2000/svg">
<path d="M367.621 406.546C367.26 406.546 366.944 406.23 366.944 405.87V144.314C366.944 143.953 367.26 143.637 367.621 143.637C367.982 143.637 368.297 143.953 368.297 144.314V405.87C368.297 406.23 367.982 406.546 367.621 406.546Z" fill="#1D1E1B"/>
<path d="M312.333 262.239C285.817 293.942 256.279 319.15 223.089 336.557C170.372 364.201 105.208 349.996 68.5001 303.141C30.3491 254.573 8.61287 196.219 0.991676 129.613C70.2589 120.278 116.888 114.731 169.199 57.7298C186.967 157.301 215.648 267.425 312.333 262.239Z" fill="#ABB8FF"/>
<path d="M165.907 351.304C127.666 351.304 91.5441 333.716 67.959 303.637C48.9736 279.286 33.6861 252.273 22.6828 223.412C11.6794 194.866 4.19347 163.344 0.315227 129.748L0.225037 129.071L3.69741 128.62C72.0627 119.421 117.249 113.333 168.703 57.3239L169.605 56.3318L169.83 57.6847C178.308 105.125 189.943 159.015 211.77 199.015C236.031 243.479 268.906 263.953 312.288 261.653L313.867 261.563L312.829 262.69C285.546 295.34 255.422 320.413 223.359 337.189C205.637 346.478 185.93 351.304 165.907 351.304ZM1.7132 130.199C9.55987 197.707 32.198 255.791 69.0413 302.78C105.659 349.5 170.326 363.479 222.773 336.016C254.295 319.511 283.923 294.934 310.845 263.051C288.432 263.953 268.41 258.587 251.319 247.087C235.761 236.625 222.097 220.661 210.597 199.646C188.906 159.872 177.271 106.478 168.793 59.2179C145.163 84.7422 120.947 101.473 92.8068 111.845C66.2904 121.585 37.384 125.464 3.92289 129.973L1.7132 130.199Z" fill="#1D1E1B"/>
<path d="M87.3502 322.487C87.3502 322.487 135.828 336.422 160.18 307.11C160.18 307.11 181.375 355.362 215.422 340.255C215.422 340.255 149.808 373.942 87.3502 322.487Z" fill="#67087E"/>
<path d="M164.69 351.755C154.182 351.755 143.675 350.357 133.528 347.606C116.933 343.051 101.24 334.799 86.8992 322.983L84.3739 320.909L87.5306 321.811C96.0086 323.976 104.712 325.058 113.461 325.103H114.633C128.297 324.923 147.237 321.585 159.639 306.659L160.315 305.802L160.766 306.794C160.901 307.065 172.446 332.995 191.747 340.481C199.368 343.412 207.215 343.141 215.107 339.624L215.693 340.841C215.513 340.932 198.872 349.364 174.836 351.304C171.454 351.619 168.072 351.755 164.69 351.755ZM90.1461 323.885C121.443 348.553 153.28 351.755 174.701 350.041C184.983 349.184 195.129 347.11 204.915 343.818C200.27 344.224 195.625 343.547 191.296 341.833C173.664 334.979 162.39 313.288 160.045 308.417C147.283 323.074 128.387 326.366 114.678 326.546C106.381 326.546 98.1732 325.644 90.1461 323.885Z" fill="#1D1E1B"/>
<path d="M42.525 171.146L42.4348 169.793C42.6151 169.793 60.3378 168.485 82.4799 162.127C102.863 156.264 131.228 144.855 150.665 123.57L151.657 124.472C131.995 146.027 103.359 157.572 82.7955 163.434C60.5633 169.838 42.7053 171.146 42.525 171.146Z" fill="#1D1E1B"/>
<path d="M64.0807 201.36C60.7887 201.405 57.4516 201.225 54.1597 200.909L54.34 199.556C54.4753 199.556 69.2668 201.405 89.9206 197.572C117.113 192.566 142.277 179.849 162.48 160.954L163.427 161.946C143.044 181.022 117.564 193.874 90.101 198.925C81.4877 200.503 72.7842 201.36 64.0807 201.36Z" fill="#1D1E1B"/>
<path d="M79.9545 242.487C77.0683 242.487 75.3998 242.352 75.3096 242.352L75.3998 240.999C85.1405 241.405 94.8361 240.638 104.396 238.744C119.143 235.903 139.661 229.004 153.731 212.363L154.768 213.22C140.428 230.131 119.594 237.166 104.622 240.052C96.5497 241.676 88.2521 242.487 79.9545 242.487Z" fill="#1D1E1B"/>
<path d="M61.871 271.484C61.1495 271.484 60.428 271.168 59.8868 270.627C34.3626 243.75 17.4967 158.79 16.8203 155.182C16.5497 153.694 17.4967 152.296 18.9398 152.025C20.428 151.755 21.8259 152.702 22.0965 154.145C22.2769 155.001 39.3682 241.18 63.8102 266.884C64.8474 267.966 64.8023 269.68 63.72 270.717C63.2239 271.213 62.5475 271.484 61.871 271.484Z" fill="white"/>
<path d="M31.6568 142.284C31.3863 142.284 31.1157 142.104 31.0255 141.833C25.0728 123.705 22.1416 104.72 22.3671 85.6441C22.5475 70.537 24.7572 55.5652 28.906 41.0443C35.986 16.2416 46.3581 1.13451 46.4934 0.95413C46.7188 0.63846 47.1247 0.593365 47.4404 0.773748C47.756 0.999227 47.8011 1.40509 47.6207 1.72076C47.5306 1.85605 37.2036 16.8279 30.2138 41.4502C23.7651 64.1334 18.8947 99.8944 32.3784 141.383C32.4686 141.743 32.2882 142.104 31.9274 142.239C31.7921 142.239 31.7019 142.284 31.6568 142.284Z" fill="#1D1E1B"/>
<path d="M54.2047 135.069C53.9792 135.069 53.7989 134.979 53.6636 134.799C39.9995 117.346 40.7211 95.1593 43.7425 79.6012C45.7718 69.2743 49.0638 59.263 53.6185 49.7929C53.7989 49.4772 54.2047 49.3419 54.5204 49.4772C54.8361 49.6576 54.9714 50.0635 54.791 50.3791C50.3265 59.7591 47.0345 69.6802 45.0503 79.8718C42.119 95.1593 41.3975 116.941 54.7459 133.987C54.9713 134.302 54.9263 134.708 54.6106 134.934C54.5204 135.024 54.34 135.069 54.2047 135.069Z" fill="#1D1E1B"/>
<path d="M127.305 366.275C117.925 366.32 108.635 364.472 99.977 360.864C90.5069 356.895 81.6681 350.762 73.6861 342.645C60.1123 328.846 53.6636 313.829 53.5734 313.694C53.4381 313.333 53.5734 312.972 53.9342 312.792C54.2949 312.656 54.6557 312.792 54.8361 313.153C54.8812 313.288 61.2848 328.124 74.6782 341.743C87.0345 354.28 108.004 368.35 137.993 364.156C138.354 364.111 138.714 364.381 138.759 364.742C138.805 365.103 138.534 365.464 138.173 365.509C134.566 366.005 130.913 366.275 127.305 366.275Z" fill="#1D1E1B"/>
<path d="M284.374 111.709C274.453 112.476 265.118 111.664 256.55 108.914C242.886 104.494 234.363 90.9654 236.212 76.7151C238.151 61.9688 244.509 48.3949 254.656 35.8583C267.959 46.1853 276.753 53.2653 295.377 52.634C281.262 72.4761 267.192 95.9711 284.374 111.709Z" fill="#ABB8FF"/>
<path d="M277.429 112.656C270.259 112.747 263.134 111.664 256.324 109.545C242.345 105.035 233.641 91.1909 235.535 76.6249C237.429 62.1943 243.697 48.3047 254.115 35.4073L254.52 34.9113L255.558 35.723C268.59 45.8696 277.204 52.5438 295.332 51.9575L296.685 51.9124L295.873 53.0398C280.586 74.5505 268.635 96.4671 284.78 111.213L285.907 112.251L284.374 112.386C282.074 112.566 279.729 112.656 277.429 112.656ZM254.791 36.7602C244.78 49.2969 238.737 62.7805 236.888 76.7602C235.039 90.6497 243.382 103.908 256.73 108.237C264.532 110.762 273.28 111.709 282.796 111.123C267.824 95.971 279.143 74.4603 294.024 53.3104C276.302 53.581 267.237 46.5009 254.791 36.7602Z" fill="#1D1E1B"/>
<path d="M236.076 83.2089C236.076 83.2089 241.849 93.8966 251.003 93.13C251.003 93.13 246.268 104.9 254.611 108.192C254.611 108.237 237.79 102.6 236.076 83.2089Z" fill="#67087E"/>
<path d="M254.43 108.868C254.25 108.823 237.158 102.916 235.445 83.2991L235.174 80.0973L236.708 82.9383C236.753 83.0285 242.39 93.2202 251.003 92.4986L252.085 92.4084L251.679 93.4457C251.634 93.4907 249.244 99.6689 251.093 104.043C251.815 105.712 253.167 107.02 254.881 107.651L254.43 108.868ZM237.158 86.0499C239.053 96.4671 245.591 102.284 250.146 105.171C250.011 104.945 249.921 104.72 249.83 104.494C248.162 100.661 249.379 95.8357 250.056 93.8064C243.923 93.8515 239.413 89.1165 237.158 86.0499Z" fill="#1D1E1B"/>
<path d="M280.09 61.3825C266.786 61.3825 254.701 50.8301 254.205 50.334L255.107 49.2968C255.242 49.4321 267.869 60.4355 280.947 59.9846L280.992 61.3374C280.676 61.3825 280.405 61.3825 280.09 61.3825Z" fill="#1D1E1B"/>
<path d="M276.482 69.7253C260.022 69.0037 251.048 57.4141 250.958 57.3239L252.04 56.5122C252.13 56.6475 260.699 67.6959 276.527 68.3724L276.482 69.7253Z" fill="#1D1E1B"/>
<path d="M265.028 76.9406C255.197 76.9406 247.756 68.3273 247.44 67.9665L248.478 67.1097C248.568 67.1999 256.459 76.2641 266.2 75.5877L266.29 76.9406C265.839 76.9406 265.434 76.9406 265.028 76.9406Z" fill="#1D1E1B"/>
<path d="M241.037 70.8977C240.36 70.8977 239.909 70.3566 239.909 69.7253C240.225 60.661 252.085 43.3442 252.581 42.5776C252.942 42.0364 253.619 41.9011 254.16 42.2619C254.701 42.6227 254.836 43.2991 254.475 43.8403C254.475 43.8403 254.475 43.8853 254.43 43.8853C254.295 44.0657 242.48 61.4276 242.164 69.8154C242.119 70.4017 241.623 70.8977 241.037 70.8977Z" fill="white"/>
<path d="M230.529 72.3858C230.169 72.3858 229.853 72.0702 229.853 71.7094C230.079 52.1829 237.384 38.3836 243.472 30.2212C250.056 21.3825 256.505 17.1886 256.775 17.0533C257.091 16.8729 257.497 16.9631 257.677 17.3238C257.858 17.6395 257.767 18.0003 257.497 18.2258C257.407 18.2709 250.958 22.4648 244.509 31.1232C238.557 39.1051 231.431 52.6339 231.206 71.7545C231.206 72.0702 230.89 72.3858 230.529 72.3858Z" fill="#1D1E1B"/>
<path d="M279.639 224.675C276.076 215.385 274.227 206.23 274.408 197.211C274.768 182.871 285.321 170.83 299.526 168.575C314.227 166.23 329.064 168.485 343.945 174.663C337.812 190.357 333.528 200.819 339.436 218.496C316.392 210.56 289.83 203.705 279.639 224.675Z" fill="#ABB8FF"/>
<path d="M279.549 226.343L279.007 224.9C275.31 215.295 273.551 205.96 273.731 197.166C274.092 182.51 284.915 170.154 299.391 167.899C313.776 165.599 328.838 167.673 344.171 173.987L344.802 174.257L344.306 175.52C338.308 190.898 334.295 201.044 340.022 218.271L340.473 219.579L339.165 219.128C314.182 210.56 289.785 205.374 280.225 224.99L279.549 226.343ZM310.935 168.305C307.147 168.305 303.359 168.62 299.616 169.207C285.772 171.416 275.445 183.186 275.084 197.211C274.904 205.374 276.437 214.077 279.729 223.006C290.011 204.336 313.821 209.071 338.354 217.369C333.122 200.458 337.316 189.725 343.044 174.979C332.175 170.56 321.398 168.305 310.935 168.305Z" fill="#1D1E1B"/>
<path d="M293.258 170.244C293.258 170.244 284.644 178.812 287.982 187.38C287.982 187.38 275.355 186.208 274.543 195.137C274.543 195.137 275.129 177.414 293.258 170.244Z" fill="#67087E"/>
<path d="M275.219 195.227L273.867 195.137C273.867 194.956 274.678 176.873 292.987 169.658L296.009 168.485L293.709 170.785C293.618 170.875 285.456 179.173 288.613 187.2L289.019 188.237L287.936 188.147C287.846 188.147 281.262 187.561 277.609 190.627C276.166 191.709 275.31 193.378 275.219 195.227ZM290.823 172.093C281.398 176.828 277.655 184.765 276.166 189.996C276.347 189.815 276.527 189.635 276.708 189.5C279.909 186.839 284.87 186.614 286.989 186.659C285.276 180.796 288.523 175.114 290.823 172.093Z" fill="#1D1E1B"/>
<path d="M326.944 207.087C322.615 194.145 329.605 178.902 329.875 178.271L331.093 178.857C331.003 178.992 324.013 194.235 328.207 206.681L326.944 207.087Z" fill="#1D1E1B"/>
<path d="M317.655 205.148C313.641 189.139 322.209 177.279 322.299 177.189L323.382 178C323.292 178.136 315.129 189.5 318.962 204.832L317.655 205.148Z" fill="#1D1E1B"/>
<path d="M307.869 197.392C304.171 187.606 310.8 177.234 311.071 176.783L312.198 177.504C312.153 177.594 305.659 187.741 309.132 196.896L307.869 197.392Z" fill="#1D1E1B"/>
<path d="M336.505 176.693C336.369 176.693 336.279 176.693 336.144 176.647C335.918 176.602 315.941 170.154 307.779 172.273C307.192 172.408 306.561 172.048 306.426 171.416C306.29 170.83 306.651 170.244 307.237 170.063C316.031 167.809 336.009 174.212 336.865 174.483C337.452 174.663 337.767 175.295 337.587 175.881C337.452 176.422 337.001 176.738 336.505 176.693Z" fill="white"/>
<path d="M262.998 181.969C262.953 181.969 262.863 181.969 262.818 181.924C262.457 181.833 262.277 181.428 262.367 181.067C262.457 180.706 264.983 172.454 273.461 165.238C281.262 158.609 295.693 151.755 320.405 156.67C320.766 156.76 320.992 157.121 320.901 157.482C320.811 157.842 320.496 158.023 320.135 157.978C301.014 154.145 285.186 156.986 274.363 166.185C266.2 173.13 263.675 181.337 263.63 181.428C263.585 181.743 263.314 181.969 262.998 181.969Z" fill="#1D1E1B"/>
<path d="M219.12 277.437L203.066 288.034C199.278 290.514 194.182 289.477 191.702 285.689L148.275 219.894L177.993 200.278L221.42 266.073C223.945 269.861 222.863 274.911 219.12 277.437Z" fill="#67087E"/>
<path d="M198.556 290.018C195.58 290.018 192.784 288.53 191.116 286.05L147.328 219.669L178.173 199.286L221.961 265.667C224.667 269.77 223.54 275.272 219.481 277.978L203.427 288.575C201.984 289.522 200.27 290.063 198.556 290.018ZM149.222 220.075L192.288 285.328C194.588 288.801 199.233 289.748 202.705 287.448L218.759 276.85C222.232 274.551 223.179 269.906 220.879 266.433L177.812 201.18L149.222 220.075Z" fill="#1D1E1B"/>
<path d="M146.02 184.9L177.993 200.278L148.275 219.894L146.02 184.9Z" fill="white"/>
<path d="M147.688 221.067L145.253 183.773L179.391 200.142L147.688 221.067ZM146.786 186.027L148.906 218.677L176.64 200.368L146.786 186.027Z" fill="#1D1D1B"/>
<path d="M161.984 192.566L147.147 202.397L146.065 184.584L161.984 192.566Z" fill="#C9353F"/>
<path d="M146.065 184.584L162.029 192.566L147.147 202.397L146.065 184.584ZM146.065 183.231C145.794 183.231 145.524 183.322 145.343 183.457C144.938 183.728 144.712 184.179 144.757 184.675L145.839 202.487C145.885 202.983 146.155 203.389 146.561 203.615C146.741 203.705 146.967 203.75 147.147 203.75C147.418 203.75 147.688 203.66 147.914 203.525L162.795 193.694C163.427 193.288 163.607 192.431 163.156 191.8C163.021 191.619 162.841 191.439 162.615 191.349L146.651 183.367C146.471 183.277 146.29 183.231 146.065 183.231Z" fill="#1D1E1B"/>
<path d="M217.001 279.466C216.775 279.466 216.55 279.331 216.414 279.15L169.785 205.644C169.605 205.328 169.695 204.923 170.011 204.697C170.327 204.517 170.732 204.607 170.913 204.877L217.542 278.384C217.722 278.699 217.632 279.105 217.316 279.331C217.271 279.421 217.136 279.466 217.001 279.466Z" fill="#1D1E1B"/>
<path d="M205.095 287.313C204.87 287.313 204.644 287.177 204.509 286.997L157.609 213.671C157.429 213.355 157.519 212.95 157.835 212.724C158.151 212.544 158.556 212.634 158.782 212.95L205.682 286.275C205.862 286.591 205.772 286.997 205.456 287.222C205.366 287.313 205.231 287.313 205.095 287.313Z" fill="#1D1E1B"/>
<path d="M368.072 383.773C341.375 392.16 249.379 373.491 237.97 356.129C226.561 338.767 236.527 327.764 236.527 327.764L225.434 316.58L255.242 270.582L264.171 276.309C264.171 276.309 281.443 263.682 296.279 275.903C311.116 288.124 363.742 286.411 367.981 296.738" fill="#AB10D0"/>
<path d="M349.312 386.523C335.287 386.523 316.798 384.359 297.136 380.3C272.423 375.159 243.742 366.185 237.384 356.535C227.192 341.022 233.821 330.244 235.625 327.854L224.577 316.715L255.107 269.635L264.261 275.498C266.922 273.739 282.976 263.998 296.82 275.407C304.171 281.45 321.443 284.111 336.685 286.456C352.694 288.891 366.493 291.056 368.703 296.512L367.44 297.008C365.501 292.273 351.386 290.109 336.46 287.809C320.27 285.328 303.54 282.758 295.918 276.49C281.668 264.765 264.802 276.805 264.622 276.895L264.261 277.166L255.513 271.529L226.381 316.535L237.519 327.809L237.068 328.26C236.662 328.711 227.643 339.128 238.556 355.813C243.607 363.479 266.696 372.589 297.452 378.992C328.027 385.351 355.67 386.974 367.846 383.141L368.252 384.449C363.788 385.847 357.249 386.523 349.312 386.523Z" fill="#1D1D1B"/>
<path d="M264.081 277.978C264.081 277.978 275.58 302.465 237.474 328.215L226.832 316.941L255.242 272.837L264.081 277.978Z" fill="#430E15"/>
<path d="M322.48 308.417C325.12 308.417 327.26 306.277 327.26 303.637C327.26 300.997 325.12 298.857 322.48 298.857C319.84 298.857 317.7 300.997 317.7 303.637C317.7 306.277 319.84 308.417 322.48 308.417Z" fill="white"/>
<path d="M274.363 313.333C277.002 313.333 279.143 311.193 279.143 308.553C279.143 305.913 277.002 303.773 274.363 303.773C271.723 303.773 269.582 305.913 269.582 308.553C269.582 311.193 271.723 313.333 274.363 313.333Z" fill="white"/>
<path d="M262.908 363.84C265.548 363.84 267.688 361.7 267.688 359.06C267.688 356.42 265.548 354.28 262.908 354.28C260.268 354.28 258.128 356.42 258.128 359.06C258.128 361.7 260.268 363.84 262.908 363.84Z" fill="white"/>
<path d="M324.825 359.466C327.465 359.466 329.605 357.326 329.605 354.686C329.605 352.046 327.465 349.906 324.825 349.906C322.185 349.906 320.045 352.046 320.045 354.686C320.045 357.326 322.185 359.466 324.825 359.466Z" fill="white"/>
<path d="M288.974 343.322C291.613 343.322 293.754 341.181 293.754 338.541C293.754 335.902 291.613 333.761 288.974 333.761C286.334 333.761 284.193 335.902 284.193 338.541C284.193 341.181 286.334 343.322 288.974 343.322Z" fill="white"/>
<path d="M222.638 235.182C217.181 230.266 206.989 226.118 201.894 225.531C199.639 225.306 197.384 225.576 195.265 226.433C195.265 226.433 211.995 248.575 211.815 249.162L161.217 237.301C161.217 237.301 144.983 251.732 171.77 267.155C171.77 267.155 167.891 280.774 175.738 291.236C175.738 291.236 168.252 300.796 187.373 315.768C206.493 330.74 238.06 325.283 238.06 325.283L250.417 275.317C250.417 275.317 235.265 244.652 222.638 235.182Z" fill="#FFCDB2"/>
<path d="M224.442 327.132C213.483 327.132 198.151 325.238 186.832 316.399C169.65 302.961 173.258 293.581 174.656 291.191C167.982 281.811 170.056 270.447 170.732 267.516C161.307 261.969 156.166 255.881 155.49 249.432C154.723 241.901 160.36 236.805 160.586 236.58L160.947 236.264L209.921 247.809C207.125 243.795 199.594 233.649 194.588 227.019L193.867 226.072L194.949 225.622C197.204 224.72 199.594 224.404 201.984 224.675C207.531 225.306 217.767 229.635 223.179 234.505C235.806 244.021 250.597 273.694 251.183 274.956L251.319 275.272L238.737 326.05L238.151 326.14C233.641 326.817 229.041 327.177 224.442 327.132ZM161.488 238.293C160.36 239.466 156.708 243.705 157.294 249.342C157.925 255.295 162.931 261.067 172.221 266.388L172.852 266.749L172.672 267.425C172.626 267.561 169.019 280.729 176.505 290.695L176.911 291.236L176.46 291.777C176.189 292.138 169.876 300.886 187.959 315.047C205.141 328.485 233.01 325.103 237.384 324.472L249.515 275.452C247.936 272.296 233.821 244.652 222.142 235.903L222.097 235.858C217.001 231.258 207.08 227.019 201.849 226.433C200.135 226.253 198.421 226.388 196.798 226.884C198.196 228.733 201.307 232.882 204.374 237.031C212.987 248.62 212.897 248.846 212.672 249.432L212.401 250.199L161.488 238.293Z" fill="#1D1E1B"/>
<path d="M199.954 278.384C201.307 278.474 202.615 278.474 203.968 278.429C204.464 278.293 204.735 277.797 204.599 277.301C204.509 276.941 204.193 276.715 203.833 276.67C203.652 276.67 187.192 277.662 172.581 266.253C172.13 266.027 171.589 266.208 171.364 266.659C171.183 266.974 171.228 267.38 171.499 267.651C179.706 273.964 189.582 277.707 199.954 278.384Z" fill="black"/>
<path d="M201.127 301.292C203.021 301.428 204.239 301.382 204.419 301.382C204.915 301.292 205.231 300.796 205.095 300.3C205.005 299.939 204.735 299.669 204.374 299.624C204.193 299.624 185.885 299.939 175.873 289.883C175.467 289.612 174.881 289.703 174.611 290.154C174.43 290.469 174.43 290.83 174.611 291.146C182.638 299.173 195.174 300.932 201.127 301.292Z" fill="black"/>
<path d="M211.905 321.631C219.436 322.082 224.306 320.052 224.487 319.962C224.983 319.872 225.298 319.376 225.208 318.88C225.118 318.384 224.622 318.068 224.126 318.158C223.991 318.203 223.9 318.248 223.765 318.293C223.54 318.384 203.923 326.366 182.638 304.945C182.232 304.675 181.646 304.765 181.375 305.171C181.149 305.486 181.149 305.892 181.375 306.163C192.965 317.797 204.013 320.909 211.273 321.495L211.905 321.631Z" fill="white"/>
<path d="M202.345 296.693C203.156 296.738 203.697 296.783 203.833 296.783C204.329 296.783 204.69 296.422 204.735 295.926C204.735 295.43 204.374 295.024 203.878 295.024C203.652 295.024 179.887 294.212 176.009 284.156C175.738 283.75 175.197 283.615 174.746 283.885C174.43 284.066 174.295 284.426 174.34 284.787C178.083 294.483 196.843 296.332 202.345 296.693Z" fill="white"/>
<path d="M199.864 272.837C200.36 272.792 200.721 272.341 200.676 271.845C200.631 271.484 200.405 271.213 200.09 271.078C199.774 271.033 170.597 265.306 163.472 251.777C163.337 251.281 162.841 251.01 162.345 251.191C161.848 251.326 161.578 251.822 161.758 252.318C161.803 252.408 161.848 252.544 161.939 252.634C169.47 266.974 198.556 272.611 199.819 272.882C199.774 272.792 199.819 272.837 199.864 272.837Z" fill="white"/>
<path d="M344.171 381.518H344.036C260.879 376.106 245.05 353.062 244.419 352.07C243.742 351.033 244.058 349.635 245.14 348.959C246.178 348.327 247.531 348.598 248.207 349.59C248.297 349.725 252.175 355.227 265.794 361.27C278.466 366.952 302.412 374.257 344.351 377.008C345.614 377.053 346.561 378.091 346.516 379.353C346.471 380.571 345.434 381.563 344.171 381.518Z" fill="white"/>
</svg>
