<svg width="414" height="430" viewBox="0 0 414 430" fill="none" xmlns="http://www.w3.org/2000/svg">
<path d="M409.032 310.328C396.576 281.937 374.284 262.265 338.118 266.732L329.785 255.436C329.785 255.436 322.484 273.69 276.01 290.742L284.428 306.806C284.428 306.806 265.873 334.94 298.946 371.449C341.683 418.567 409.118 419.426 409.118 419.426L409.032 310.328Z" fill="#AB10D0"/>
<path d="M329.785 255.436L338.118 266.732C341.425 266.302 344.776 266.088 348.126 266.088C378.493 266.088 397.821 284.6 409.075 310.328L409.161 419.426C409.161 419.426 341.726 418.567 298.989 371.449C265.916 334.94 284.471 306.806 284.471 306.806L276.052 290.742C322.484 273.69 329.785 255.436 329.785 255.436ZM329.485 252.815L328.626 254.963C328.583 255.049 326.65 259.516 319.262 265.959C312.39 271.929 299.204 280.906 275.58 289.582L274.206 290.098L274.893 291.386L282.968 306.806C281.765 308.868 278.458 315.525 278.028 325.447C277.771 332.62 278.973 339.75 281.55 346.451C284.815 355.213 290.356 363.932 298.044 372.351C307.88 383.218 319.864 392.495 333.608 399.969C345.076 406.111 357.189 410.965 369.731 414.358C391.851 420.457 408.946 420.715 409.118 420.715H410.406V419.426L410.32 310.328V310.07L410.192 309.813C404.178 295.939 396.189 285.072 386.525 277.556C375.701 269.094 362.773 264.799 348.083 264.799C344.948 264.799 341.812 264.971 338.677 265.357L330.816 254.662L329.485 252.815Z" fill="#1D1D1B"/>
<path d="M313.979 405.853C292.503 397.564 279.489 379.438 272.402 365.65C267.763 356.759 264.284 347.267 262.007 337.517L263.253 337.259C265.486 346.923 268.965 356.287 273.518 365.092C280.52 378.665 293.276 396.533 314.409 404.651L313.979 405.853Z" fill="#1D1D1B"/>
<path d="M329.785 255.436C329.785 255.436 322.484 273.69 276.01 290.742L284.428 306.806C284.428 306.806 335.412 301.652 338.118 266.732L329.785 255.436Z" fill="#67087E"/>
<path d="M394.299 333.308C398.617 333.308 402.117 329.807 402.117 325.49C402.117 321.173 398.617 317.673 394.299 317.673C389.982 317.673 386.482 321.173 386.482 325.49C386.482 329.807 389.982 333.308 394.299 333.308Z" fill="white"/>
<path d="M384.334 389.961C388.652 389.961 392.152 386.461 392.152 382.144C392.152 377.826 388.652 374.327 384.334 374.327C380.017 374.327 376.517 377.826 376.517 382.144C376.517 386.461 380.017 389.961 384.334 389.961Z" fill="white"/>
<path d="M311.273 343.917C315.591 343.917 319.09 340.416 319.09 336.099C319.09 331.782 315.591 328.282 311.273 328.282C306.956 328.282 303.456 331.782 303.456 336.099C303.456 340.416 306.956 343.917 311.273 343.917Z" fill="white"/>
<path d="M193.671 248.305C193.671 248.305 198.524 301.695 277.985 290.012C277.985 290.012 320.723 281.808 329.828 255.436L327.337 250.711C327.337 250.711 345.42 220.816 331.289 205.311C331.289 205.311 308.911 208.575 298.516 241.691C298.516 241.691 269.867 214.545 234.904 232.8C234.904 232.8 216.263 231.683 214.545 242.249C214.588 242.206 203.507 237.181 193.671 248.305Z" fill="#FFCDB2"/>
<path d="M200.156 243.108C204.623 240.746 209.863 240.402 214.588 242.206C215.104 238.985 217.251 236.837 219.957 235.42C226.013 232.241 234.947 232.757 234.947 232.757C269.953 214.459 298.559 241.648 298.559 241.648C305.002 221.074 316.084 212.011 323.557 208.102C328.11 205.74 331.289 205.268 331.289 205.268C345.42 220.773 327.337 250.668 327.337 250.668L329.828 255.393C325.877 266.861 315.654 274.85 305.26 280.305C291.73 287.392 277.985 290.012 277.985 290.012C198.567 301.738 193.671 248.305 193.671 248.305C195.518 246.201 197.708 244.44 200.156 243.108ZM198.825 240.531C196.033 242.035 193.585 244.01 191.523 246.373C191.008 246.974 190.75 247.747 190.836 248.52C190.922 249.293 192.726 267.376 209.735 280.777C225.498 293.147 248.606 297.228 278.415 292.847H278.544C288.294 290.785 297.743 287.392 306.591 282.882C320.207 275.752 328.926 266.861 332.534 256.38C332.792 255.65 332.706 254.791 332.363 254.104L330.644 250.754C334.21 244.311 347.138 218.368 333.436 203.335C332.792 202.648 331.847 202.304 330.902 202.433C330.773 202.433 327.165 202.991 322.226 205.568C314.366 209.649 303.928 218.368 297.185 236.794C292.202 233.058 286.705 230.008 280.906 227.731C269.953 223.436 253.03 220.387 234.26 229.922C231.769 229.879 224.209 229.965 218.583 232.929C215.834 234.346 213.858 236.322 212.698 238.727C207.974 237.653 203.077 238.341 198.825 240.531Z" fill="black"/>
<path d="M302.382 260.547L302.296 260.59C301.566 260.933 300.707 260.59 300.406 259.86C300.32 259.688 298.688 256.338 293.534 254.834C287.95 253.202 277.427 253.632 259.129 265.1C258.657 265.4 258.099 265.4 257.626 265.1C257.368 264.971 232.929 250.281 214.073 243.581C213.343 243.323 212.913 242.507 213.214 241.734C213.471 241.004 214.287 240.574 215.061 240.875C232.284 246.974 254.061 259.645 258.356 262.179C273.518 252.815 285.674 249.465 294.479 252.128C300.836 254.061 302.94 258.485 303.026 258.7C303.327 259.344 303.069 260.203 302.382 260.547Z" fill="black"/>
<path d="M273.561 249.122C273.046 249.379 272.402 249.336 271.972 248.95C271.843 248.821 258.829 237.911 234.174 233.272C233.401 233.143 232.886 232.37 233.015 231.597C233.143 230.824 233.917 230.309 234.69 230.437C260.16 235.248 273.261 246.287 273.819 246.759C274.42 247.275 274.506 248.177 273.991 248.778C273.862 248.907 273.733 249.036 273.561 249.122Z" fill="black"/>
<path d="M273.347 284.686C273.261 284.729 273.132 284.772 273.046 284.815C243.538 294.092 215.619 275.408 214.416 274.592C213.557 273.948 213.386 272.745 214.03 271.886C214.631 271.07 215.705 270.855 216.564 271.414C216.822 271.586 244.182 289.84 271.886 281.121C272.917 280.82 273.991 281.379 274.291 282.366C274.549 283.311 274.163 284.256 273.347 284.686Z" fill="white"/>
<path d="M115.025 154.284C113.909 151.878 111.718 150.117 109.098 149.516C106.478 148.872 103.729 149.172 101.324 150.375C96.5561 152.694 94.1508 156.131 94.1508 160.598L96.642 203.077L90.2422 190.664C87.5792 185.51 84.9161 180.57 82.4249 176.06C79.7189 171.207 77.1848 168.329 74.6936 167.169C72.1164 166.009 69.3675 166.095 66.5327 167.47C60.9489 170.176 58.2 175.33 58.4577 182.761C58.5866 192.511 58.5436 204.323 58.3718 217.938L54.5491 210.121L48.7935 197.15C45.7869 190.191 43.2527 185.982 40.9762 184.264C38.485 182.374 35.2636 182.374 31.4408 184.221C28.649 185.553 26.4155 187.786 25.1269 190.621C23.8383 193.284 23.4947 196.291 24.2249 199.168C24.9121 201.746 26.2437 205.096 28.2194 209.133C38.8715 231.039 45.701 244.053 49.0942 248.864C52.4874 253.675 55.7947 257.111 58.8013 259.043C62.1086 261.105 64.9005 261.621 67.134 260.547C70.4413 258.915 72.6748 255.822 73.7057 251.226C74.6936 246.931 75.3378 237.353 75.6385 221.933C75.7674 215.49 75.8962 210.465 76.0251 206.857C84.143 223.995 90.0704 234.174 94.1079 237.911C98.7896 242.249 103.214 243.452 107.208 241.519C110.516 239.973 113.093 237.181 114.381 233.745C115.584 230.523 116.486 226.314 117.044 221.246C117.646 216.177 117.646 205.611 117.044 189.032C116.486 172.753 116.185 163.218 116.185 160.683C116.142 157.892 115.799 155.787 115.025 154.284Z" fill="#67087E"/>
<path d="M64.6428 261.707C62.7958 261.707 60.7341 260.976 58.4147 259.559C55.3222 257.626 51.9719 254.104 48.5358 249.207C45.1426 244.354 38.2702 231.339 27.5752 209.391C25.5564 205.311 24.2249 201.874 23.5377 199.297C22.7646 196.291 23.1082 193.112 24.4826 190.32C25.8142 187.4 28.1765 184.994 31.0973 183.62C35.2206 181.687 38.6568 181.687 41.3628 183.749C43.7251 185.51 46.3452 189.805 49.3948 196.892L55.1933 209.821L57.8134 215.189C57.9852 202.69 57.9852 191.781 57.8563 182.761C57.6416 175.072 60.4764 169.703 66.3179 166.869C69.3245 165.408 72.2453 165.279 75.0371 166.525C77.6572 167.728 80.2773 170.691 83.0692 175.674C85.6033 180.184 88.2234 185.123 90.9294 190.32L95.9118 200.027L93.6354 160.598C93.6354 155.83 96.1695 152.222 101.152 149.774C103.686 148.485 106.607 148.184 109.356 148.872C112.148 149.516 114.51 151.406 115.713 153.983C116.486 155.615 116.872 157.806 116.872 160.683C116.872 163.218 117.173 172.71 117.731 188.989C118.333 205.611 118.29 216.177 117.731 221.289C117.173 226.443 116.228 230.652 115.025 233.917C113.694 237.525 111.031 240.445 107.552 242.035C103.257 244.096 98.6178 242.894 93.7213 238.341C89.8126 234.733 84.2289 225.283 76.6264 209.477C76.4975 212.741 76.4116 216.908 76.3257 221.89C76.025 237.353 75.3808 246.974 74.3929 251.312C73.2761 256.08 70.9567 259.344 67.4776 261.062C66.5327 261.492 65.5877 261.707 64.6428 261.707ZM36.6381 183.491C34.92 183.534 33.2449 184.006 31.6986 184.822C29.0356 186.068 26.9309 188.216 25.6853 190.879C24.4397 193.37 24.139 196.248 24.8263 198.954C25.4705 201.488 26.8021 204.795 28.7349 208.833C39.387 230.738 46.2164 243.71 49.5666 248.477C52.9169 253.245 56.1383 256.638 59.102 258.485C62.1945 260.418 64.8146 260.933 66.7904 259.988C69.9259 258.485 72.0305 255.478 73.0184 251.097C74.0063 246.845 74.6076 237.31 74.9083 221.976C75.0371 215.576 75.166 210.465 75.2949 206.9L75.4237 204.28L76.5405 206.642C84.6154 223.737 90.4569 233.788 94.4514 237.482C98.9185 241.605 103.085 242.808 106.822 240.961C110 239.5 112.448 236.837 113.651 233.53C114.811 230.352 115.713 226.185 116.271 221.16C116.872 216.134 116.872 205.568 116.271 189.032C115.713 172.753 115.412 163.218 115.412 160.683C115.412 157.977 115.068 155.959 114.381 154.541C113.35 152.308 111.289 150.676 108.883 150.117C106.435 149.473 103.815 149.774 101.539 150.933C97.0286 153.124 94.7521 156.345 94.7521 160.555L97.4151 206.041L89.6408 190.879C86.9778 185.724 84.3148 180.828 81.8236 176.275C79.2035 171.55 76.7552 168.758 74.3929 167.685C72.0305 166.611 69.4534 166.697 66.7904 167.985C61.4643 170.562 58.8442 175.545 59.059 182.675C59.1879 192.425 59.1449 204.237 58.9731 217.895L58.9301 220.601L53.9477 210.336L48.1062 197.364C45.1426 190.492 42.6513 186.369 40.5037 184.737C39.4729 183.92 38.0555 183.448 36.6381 183.491Z" fill="#1D1E1B"/>
<path d="M176.017 129.629C175.416 127.782 174.342 126.537 172.796 125.849C171.25 125.162 169.532 125.291 167.728 126.193C166.052 127.009 164.678 128.341 163.862 130.016C162.96 131.691 162.788 133.667 163.346 135.514L181.472 195.174C182.074 197.193 183.19 198.524 184.865 199.168C186.541 199.813 188.216 199.684 189.977 198.825C194.057 196.849 195.26 192.812 193.456 186.927L176.017 129.629Z" fill="#67087E"/>
<path d="M186.97 200.242C186.154 200.242 185.381 200.113 184.651 199.813C182.804 199.083 181.558 197.622 180.914 195.389L162.745 135.728C162.101 133.753 162.316 131.605 163.304 129.758C164.205 127.954 165.666 126.537 167.47 125.635C169.489 124.647 171.378 124.561 173.097 125.291C174.815 126.021 176.017 127.439 176.662 129.457L194.1 186.755C195.99 192.983 194.744 197.279 190.277 199.426C189.247 199.942 188.13 200.199 186.97 200.242ZM170.734 126.107C169.789 126.107 168.844 126.365 167.985 126.794C166.439 127.567 165.193 128.813 164.42 130.359C163.604 131.906 163.432 133.71 163.948 135.342L182.116 195.002C182.675 196.806 183.663 198.009 185.123 198.61C186.583 199.211 188.13 199.083 189.719 198.266C193.542 196.419 194.573 192.769 192.854 187.142L175.416 129.844C174.901 128.212 173.913 127.052 172.581 126.451C171.98 126.236 171.378 126.107 170.734 126.107Z" fill="#1D1E1B"/>
<path d="M218.325 131.519C213.858 131.648 210.078 132.464 207.029 133.924C201.015 136.845 196.849 143.202 194.658 152.823C192.511 162.359 192.94 170.348 195.99 176.619C198.352 181.515 202.089 184.651 207.072 185.939C212.054 187.228 217.38 186.498 223.05 183.749C225.885 182.374 229.149 179.496 232.972 174.986C236.966 170.305 238.255 166.697 236.966 163.991C236.322 162.616 235.162 161.585 233.745 161.07C232.242 160.512 230.609 160.598 229.192 161.328C228.634 161.585 227.646 162.402 224.553 166.224C222.534 168.844 220.687 170.562 218.969 171.378C216.22 172.71 213.772 173.14 211.667 172.624C209.692 172.152 208.017 170.777 207.2 168.93C205.869 166.181 205.697 161.886 206.685 156.131C207.931 149.129 209.692 146.896 210.98 146.295C213.987 144.834 216.435 144.362 218.239 144.834C220.387 145.435 222.191 145.393 223.565 144.705C225.369 143.846 226.701 142.3 227.302 140.41C227.989 138.434 227.946 136.587 227.13 134.998C226.013 132.55 223.05 131.39 218.325 131.519Z" fill="#67087E"/>
<path d="M211.925 187.185C210.25 187.185 208.532 186.97 206.9 186.541C201.746 185.166 197.88 181.902 195.389 176.876C192.296 170.476 191.824 162.359 194.014 152.651C196.248 142.858 200.5 136.33 206.728 133.323C209.863 131.777 213.772 130.961 218.282 130.832C223.264 130.703 226.443 131.991 227.731 134.655C228.591 136.416 228.676 138.434 227.903 140.582C227.259 142.644 225.756 144.319 223.823 145.264C222.277 145.994 220.344 146.08 218.067 145.435C216.435 144.963 214.116 145.435 211.238 146.853C210.293 147.325 208.532 149.129 207.286 156.259C206.298 161.843 206.427 166.052 207.716 168.673C208.489 170.348 209.949 171.593 211.753 172.023C213.686 172.495 216.006 172.109 218.626 170.82C220.215 170.047 222.019 168.372 223.952 165.838C227.087 161.929 228.118 161.113 228.805 160.769C230.395 159.953 232.198 159.867 233.874 160.512C235.463 161.07 236.751 162.23 237.439 163.733C238.899 166.697 237.567 170.519 233.358 175.416C229.493 179.969 226.142 182.89 223.222 184.307C219.356 186.24 215.533 187.185 211.925 187.185ZM218.368 132.163C214.03 132.292 210.293 133.065 207.329 134.526C201.488 137.36 197.45 143.589 195.303 152.995C193.155 162.402 193.585 170.219 196.591 176.361C198.868 181.086 202.476 184.092 207.243 185.338C212.011 186.583 217.251 185.853 222.792 183.19C225.584 181.859 228.762 179.024 232.499 174.6C236.236 170.176 237.567 166.74 236.408 164.291C235.806 163.089 234.776 162.144 233.53 161.714C232.198 161.199 230.738 161.285 229.493 161.929C228.805 162.273 227.345 163.819 225.068 166.611C223.007 169.317 221.074 171.121 219.27 171.98C216.349 173.397 213.772 173.827 211.539 173.268C209.348 172.753 207.544 171.25 206.642 169.231C205.225 166.353 205.053 161.929 206.084 156.045C207.115 150.16 208.661 146.724 210.722 145.736C213.901 144.19 216.478 143.717 218.454 144.233C220.43 144.748 222.062 144.748 223.307 144.147C224.94 143.374 226.185 141.956 226.744 140.195C227.388 138.391 227.302 136.716 226.615 135.256C225.584 133.108 222.792 132.077 218.368 132.163Z" fill="#1D1E1B"/>
<path d="M264.885 112.964C260.719 111.117 256.295 111.289 251.699 113.522C243.881 117.302 238.899 123.487 236.794 131.82C234.69 140.152 235.377 147.798 238.684 154.584C241.09 159.524 244.655 162.874 249.336 164.635C254.018 166.396 258.915 166.052 263.854 163.647C270.898 160.211 275.408 154.369 277.255 146.252C279.102 138.177 278.286 130.488 274.807 123.315C272.316 118.29 269.008 114.811 264.885 112.964ZM267.806 139.336C266.818 143.589 264.455 146.638 260.805 148.442C258.227 149.688 255.693 149.86 253.245 148.958C250.797 148.056 248.95 146.295 247.704 143.717C245.986 140.152 245.643 136.158 246.716 131.82C247.704 127.61 250.539 124.088 254.491 122.241C256.896 121.082 259.215 120.996 261.363 121.941C263.511 122.886 265.229 124.733 266.517 127.353C268.321 131.047 268.794 135.299 267.806 139.336Z" fill="#67087E"/>
<path d="M255.307 166.439C253.202 166.439 251.097 166.052 249.122 165.322C244.311 163.518 240.617 160.039 238.126 154.971C234.733 148.013 234.088 140.195 236.193 131.734C238.341 123.186 243.452 116.872 251.441 113.007C256.209 110.687 260.847 110.473 265.186 112.448C269.438 114.338 272.874 117.946 275.408 123.143C278.973 130.445 279.789 138.305 277.942 146.509C276.052 154.842 271.414 160.855 264.198 164.377C261.406 165.666 258.399 166.396 255.307 166.439ZM259.043 112.362C256.595 112.405 254.147 113.007 251.956 114.123C244.354 117.817 239.457 123.831 237.396 131.991C235.334 140.152 235.978 147.669 239.243 154.327C241.562 159.094 245.041 162.359 249.508 164.034C253.975 165.709 258.743 165.365 263.51 163.046C270.383 159.696 274.764 153.983 276.568 146.08C278.372 138.177 277.556 130.617 274.163 123.573C271.757 118.676 268.579 115.283 264.584 113.522C262.866 112.792 260.976 112.362 259.043 112.362ZM256.38 150.16C255.221 150.16 254.104 149.945 253.03 149.559C250.453 148.571 248.434 146.724 247.103 143.975C245.299 140.281 244.955 136.115 246.072 131.648C247.103 127.224 250.067 123.573 254.19 121.64C256.767 120.394 259.258 120.309 261.621 121.339C263.897 122.37 265.744 124.303 267.118 127.052C269.008 130.918 269.481 135.299 268.45 139.465C267.419 143.932 264.971 147.111 261.105 149C259.645 149.731 258.013 150.117 256.38 150.16ZM258.313 121.941C257.068 121.941 255.865 122.284 254.748 122.843C250.968 124.561 248.263 127.954 247.318 131.991C246.287 136.158 246.587 140.024 248.263 143.46C249.422 145.865 251.183 147.54 253.46 148.399C255.736 149.258 258.099 149.086 260.547 147.927C264.026 146.209 266.259 143.331 267.204 139.25C268.149 135.385 267.72 131.304 265.959 127.696C264.756 125.205 263.124 123.487 261.105 122.585C260.246 122.155 259.301 121.941 258.313 121.941Z" fill="#1D1E1B"/>
<path d="M317.759 80.6638C313.335 82.7685 309.727 86.2046 307.45 90.5428C304.487 88.4382 300.922 88.3522 296.841 90.328C293.534 91.9173 290.699 95.5682 288.337 101.195C288.251 100.551 288.079 99.9063 287.821 99.305C287.091 97.8446 285.803 96.7279 284.256 96.2125C282.624 95.6111 280.82 95.697 279.274 96.4702C277.255 97.4581 276.053 99.6057 275.623 102.87C275.236 105.963 275.838 109.613 277.384 113.737C278.329 116.271 279.403 119.578 280.648 123.573L285.545 139.465C285.974 141.097 286.576 142.644 287.263 144.19C289.582 148.958 292.804 148.614 295.123 147.497C296.841 146.724 298.302 145.393 299.29 143.76C300.234 142.257 300.406 140.41 299.805 138.735L294.221 118.805C295.853 113.05 297.829 108.454 300.02 105.146C300.406 106.048 300.75 106.993 301.008 107.938C301.867 110.687 303.671 115.455 306.463 121.984C308.438 126.622 309.813 130.016 310.543 132.12L312.175 136.888L312.218 136.974C312.862 138.348 314.108 139.422 315.568 139.852C317.158 140.367 318.876 140.195 320.336 139.422C321.796 138.692 322.999 137.532 323.815 136.115C324.631 134.654 324.975 132.979 324.803 131.304C324.631 129.672 322.784 124.733 319.09 116.228C316.299 110.043 314.495 105.619 313.764 103.128C314.795 101.367 315.955 99.6916 317.201 98.0594C319.649 94.795 320.379 94.1508 320.594 94.0219C320.766 94.0649 321.925 94.5803 324.588 100.035L333.995 121.726C335.369 124.518 336.658 126.193 338.032 126.837C339.407 127.482 341.125 127.353 343.101 126.408C344.776 125.592 346.107 124.217 346.966 122.542C347.954 120.695 347.997 118.633 347.095 116.4C346.279 114.381 344.905 111.289 343.015 107.208C339.493 99.6057 337.603 95.5252 337.388 95.0528C336.185 92.132 335.112 89.7697 334.252 88.0086C330.258 79.7618 324.717 77.2706 317.759 80.6638Z" fill="#67087E"/>
<path d="M292.417 148.786C290.527 148.786 288.423 147.798 286.748 144.405C286.017 142.858 285.459 141.226 284.987 139.594L280.09 123.702C278.887 119.707 277.771 116.443 276.826 113.909C275.236 109.699 274.635 105.963 275.022 102.741C275.451 99.2621 276.783 96.9427 279.016 95.8689C280.734 95.0098 282.71 94.881 284.471 95.5682C286.189 96.1266 287.607 97.3722 288.423 99.0044C288.466 99.0903 288.509 99.1332 288.509 99.2191C290.785 94.4515 293.491 91.2301 296.584 89.7267C300.621 87.7509 304.186 87.708 307.236 89.5979C309.598 85.4315 313.163 82.1242 317.501 80.0625C321.152 78.3015 324.459 78.0867 327.38 79.3753C330.301 80.6639 332.792 83.4987 334.854 87.7509C335.713 89.512 336.787 91.9173 337.989 94.838C338.204 95.3105 340.051 99.3909 343.616 106.993C345.506 111.117 346.88 114.209 347.696 116.228C348.684 118.633 348.641 120.91 347.525 122.929C346.623 124.733 345.162 126.15 343.358 127.052C341.211 128.083 339.364 128.212 337.775 127.482C336.271 126.751 334.854 124.99 333.436 122.07L323.987 100.336C322.14 96.5561 321.109 95.3105 320.637 94.881C319.606 96.0407 318.618 97.2433 317.716 98.4889C316.556 99.9923 315.439 101.581 314.452 103.257C315.225 105.791 316.986 110.086 319.649 116.013C323.386 124.733 325.233 129.543 325.404 131.304C325.619 133.108 325.233 134.912 324.331 136.501C323.472 138.048 322.183 139.293 320.594 140.066C318.962 140.926 317.072 141.097 315.354 140.539C313.721 140.024 312.347 138.864 311.617 137.318L311.574 137.189L309.942 132.421C309.211 130.316 307.837 126.923 305.861 122.327C303.069 115.756 301.265 110.988 300.406 108.196C300.234 107.638 300.063 107.079 299.891 106.607C298.001 109.742 296.326 113.866 294.865 118.848L300.449 138.52C301.094 140.367 300.879 142.386 299.848 144.061C298.817 145.822 297.271 147.197 295.424 148.056C294.522 148.528 293.491 148.786 292.417 148.786ZM282.109 96.4272C281.25 96.4272 280.391 96.642 279.575 97.0286C277.771 97.8876 276.697 99.8634 276.31 102.913C275.924 105.963 276.525 109.442 278.028 113.479C278.973 116.013 280.09 119.364 281.293 123.358L286.189 139.25C286.619 140.84 287.177 142.386 287.907 143.846C289.582 147.282 291.945 148.313 294.908 146.853C296.541 146.123 297.872 144.877 298.774 143.374C299.59 141.999 299.762 140.367 299.247 138.864L293.534 118.805L293.577 118.633C295.252 112.835 297.228 108.153 299.461 104.803L300.106 103.815L300.578 104.889C300.965 105.834 301.308 106.779 301.609 107.767C302.468 110.516 304.272 115.24 307.021 121.769C308.997 126.408 310.414 129.844 311.144 131.949L312.776 136.759C313.378 137.962 314.452 138.907 315.74 139.293C317.158 139.723 318.704 139.594 320.035 138.864C321.367 138.22 322.484 137.146 323.214 135.814C323.987 134.483 324.288 132.893 324.116 131.39C323.944 129.844 322.054 124.819 318.446 116.486C315.654 110.258 313.85 105.834 313.077 103.3L312.991 103.042L313.12 102.827C314.194 101.023 315.354 99.305 316.642 97.6729C317.888 95.9977 319.52 93.8931 320.207 93.4636L320.422 93.2918L320.68 93.3777C321.668 93.6354 323.171 95.8259 325.061 99.7346L334.51 121.468C335.756 124.045 337.044 125.678 338.247 126.236C339.45 126.794 340.953 126.665 342.757 125.806C344.303 125.033 345.549 123.788 346.365 122.241C347.267 120.566 347.31 118.719 346.451 116.658C345.592 114.596 344.26 111.589 342.37 107.466C338.805 99.7775 336.958 95.783 336.744 95.3105C335.541 92.4327 334.467 90.0704 333.651 88.3093C331.718 84.3148 329.399 81.6947 326.779 80.535C324.159 79.3753 321.238 79.5901 317.974 81.1793C313.678 83.241 310.156 86.5912 307.966 90.8005L307.622 91.4448L307.021 91.0153C304.272 89.0395 300.922 88.9966 297.099 90.8435C293.963 92.3898 291.172 95.9118 288.895 101.367L288.079 103.257L287.65 101.238C287.564 100.637 287.392 100.078 287.177 99.4768C286.533 98.1453 285.373 97.1574 283.956 96.685C283.397 96.5561 282.753 96.4702 282.109 96.4272Z" fill="#1D1E1B"/>
<path d="M382.316 86.3335C380.855 87.0637 379.18 88.6959 377.29 91.316C375.186 94.1078 372.437 96.3413 369.301 97.8017C365.479 99.6486 361.999 100.078 358.864 99.0473L369.516 86.9778C374.67 81.2652 377.806 76.927 379.094 73.7486C380.469 70.656 380.34 67.091 378.837 64.0844C377.204 60.7341 374.413 58.8872 370.461 58.5436C366.681 58.2429 362.171 59.3597 357.017 61.8509C349.114 65.7166 344.26 72.0305 342.542 80.7068C340.867 89.2972 341.64 97.0286 344.905 103.686C347.267 108.583 351.047 111.632 356.115 112.749C361.097 113.866 366.853 112.878 373.167 109.785C378.106 107.466 382.402 104.03 385.795 99.7345C389.231 95.3964 390.09 91.4448 388.458 88.0086C387.771 86.6342 386.053 84.5295 382.316 86.3335ZM352.421 85.8611C355.342 74.9083 364.405 63.3113 372.995 67.2628C381.586 71.2144 350.188 94.1078 352.421 85.8611Z" fill="#67087E"/>
<path d="M360.238 113.866C358.821 113.866 357.404 113.737 355.986 113.436C350.703 112.277 346.794 109.098 344.303 104.03C340.996 97.2433 340.18 89.3831 341.898 80.6639C343.659 71.8158 348.641 65.287 356.716 61.3784C361.956 58.8442 366.595 57.6845 370.504 57.9852C374.67 58.3288 377.677 60.3046 379.395 63.8696C380.984 67.0481 381.113 70.7849 379.653 74.0493C378.321 77.3136 375.143 81.6947 369.946 87.4503L359.981 98.7467C362.687 99.348 365.693 98.8755 368.958 97.2863C372.05 95.8689 374.713 93.6783 376.732 90.9723C378.708 88.2234 380.426 86.5483 382.015 85.7752C383.862 84.8732 385.451 84.7443 386.783 85.4315C387.771 85.947 388.544 86.806 389.016 87.7939C390.82 91.4448 389.875 95.6541 386.31 100.207C382.831 104.545 378.45 108.024 373.425 110.43C368.7 112.706 364.276 113.866 360.238 113.866ZM369.215 59.1879C365.822 59.1879 361.828 60.3046 357.318 62.4952C349.629 66.232 344.862 72.4171 343.186 80.8786C341.511 89.3402 342.327 96.8997 345.506 103.428C347.782 108.11 351.433 111.074 356.287 112.148C361.14 113.221 366.724 112.234 372.909 109.227C377.72 106.908 381.972 103.557 385.322 99.3909C388.587 95.2675 389.446 91.5307 387.899 88.3523C387.556 87.5791 386.997 86.9778 386.267 86.5912C385.279 86.1188 384.077 86.2476 382.616 86.9349C381.242 87.6221 379.653 89.1684 377.806 91.7025C375.658 94.5803 372.823 96.8997 369.559 98.403C365.607 100.336 361.913 100.765 358.649 99.6916L357.704 99.3909L369.001 86.5912C374.112 80.9216 377.204 76.6693 378.493 73.5338C379.782 70.6131 379.696 67.2628 378.278 64.3851C376.775 61.2496 374.112 59.5315 370.418 59.2308C370.031 59.2308 369.602 59.1879 369.215 59.1879ZM353.409 88.3093C353.151 88.3093 352.937 88.2664 352.679 88.2234C352.249 88.0946 351.261 87.5362 351.734 85.7322C354.01 77.2707 359.465 69.5393 365.006 66.9192C367.841 65.5877 370.59 65.5018 373.21 66.7045C374.241 67.1769 375.83 68.4225 374.67 71.3003C373.296 74.8653 368.313 79.5042 364.147 82.6397C362.858 83.6705 356.587 88.3093 353.409 88.3093ZM369.43 67.134C368.099 67.134 366.767 67.4776 365.564 68.036C360.367 70.4842 355.213 77.872 353.022 86.0329C352.894 86.5912 352.894 86.8919 353.108 86.9349C355.814 87.8368 370.976 77.2707 373.511 70.7849C374.284 68.8521 373.468 68.1648 372.694 67.8212C371.664 67.3917 370.547 67.134 369.43 67.134Z" fill="#1D1E1B"/>
<path d="M166.954 192.554C165.494 193.284 163.819 194.916 161.886 197.536C159.781 200.328 157.033 202.562 153.897 204.022C150.074 205.869 146.595 206.298 143.46 205.268L154.112 193.198C159.266 187.485 162.402 183.147 163.69 179.969C165.065 176.876 164.936 173.311 163.432 170.305C161.8 166.954 159.008 165.108 155.057 164.764C151.277 164.463 146.767 165.58 141.613 168.071C133.71 171.894 128.856 178.251 127.138 186.927C125.463 195.475 126.236 203.206 129.5 209.906C131.863 214.803 135.642 217.853 140.711 218.969C145.693 220.086 151.449 219.098 157.72 216.006C162.659 213.686 166.954 210.25 170.348 205.955C173.784 201.617 174.643 197.665 173.011 194.229C172.409 192.854 170.691 190.707 166.954 192.554ZM137.06 192.081C139.981 181.129 149.043 169.532 157.634 173.483C166.224 177.435 134.869 200.285 137.06 192.081Z" fill="#67087E"/>
<path d="M144.877 220.043C143.46 220.043 142.042 219.914 140.625 219.571C135.342 218.411 131.433 215.232 128.985 210.164C125.678 203.378 124.861 195.518 126.58 186.798C128.341 177.95 133.323 171.421 141.398 167.513C146.638 164.936 151.277 163.819 155.186 164.12C159.352 164.463 162.359 166.439 164.077 170.004C165.666 173.182 165.752 176.919 164.334 180.184C163.003 183.448 159.824 187.829 154.627 193.585L144.662 204.881C147.368 205.482 150.375 205.01 153.639 203.421C156.732 202.003 159.395 199.813 161.414 197.107C163.389 194.358 165.108 192.683 166.697 191.91C168.544 191.008 170.133 190.879 171.464 191.566C172.452 192.081 173.225 192.94 173.698 193.928C175.459 197.579 174.557 201.746 170.992 206.341C167.513 210.68 163.132 214.159 158.106 216.564C153.339 218.883 148.915 220.043 144.877 220.043ZM153.854 165.408C150.461 165.408 146.466 166.525 141.956 168.715C134.268 172.452 129.5 178.637 127.825 187.099C126.15 195.56 126.923 203.12 130.145 209.649C132.421 214.373 136.072 217.294 140.926 218.368C145.779 219.442 151.363 218.454 157.548 215.447C162.402 213.171 166.654 209.778 169.961 205.611C173.225 201.488 174.084 197.751 172.538 194.573C172.195 193.799 171.636 193.198 170.906 192.812C169.918 192.339 168.715 192.468 167.255 193.155C165.881 193.842 164.291 195.389 162.444 197.923C160.297 200.801 157.462 203.12 154.198 204.623C150.246 206.556 146.552 206.986 143.288 205.912L142.343 205.611L153.639 192.812C158.751 187.142 161.843 182.89 163.132 179.754C164.42 176.833 164.334 173.483 162.917 170.605C161.414 167.47 158.751 165.752 155.057 165.451C154.67 165.408 154.241 165.408 153.854 165.408ZM138.091 194.487C137.833 194.487 137.618 194.444 137.361 194.401C136.931 194.272 135.943 193.714 136.416 191.91C138.692 183.448 144.147 175.717 149.688 173.097C152.523 171.765 155.272 171.679 157.892 172.882C158.922 173.354 160.512 174.6 159.395 177.478C157.977 181.043 153.038 185.682 148.872 188.817C147.54 189.848 141.226 194.487 138.091 194.487ZM154.069 173.311C152.737 173.311 151.406 173.655 150.203 174.213C144.963 176.662 139.809 184.092 137.618 192.21C137.489 192.769 137.489 193.069 137.704 193.112C140.41 194.014 155.572 183.448 158.106 176.962C158.879 175.029 158.063 174.342 157.29 173.999C156.345 173.569 155.229 173.311 154.069 173.311Z" fill="#1D1E1B"/>
<path d="M110.601 220.129C110.516 220.129 110.43 220.129 110.344 220.129C109.184 220 108.325 218.926 108.454 217.767C111.804 188.817 105.963 155.572 105.92 155.271C105.748 154.112 106.564 152.995 107.724 152.823C108.84 152.651 109.914 153.382 110.129 154.498C110.172 154.842 116.142 188.645 112.706 218.282C112.62 219.313 111.675 220.129 110.601 220.129Z" fill="white"/>
<path d="M68.2937 255.135C68.0789 255.135 67.8642 255.092 67.6923 255.049C66.5756 254.705 65.9313 253.503 66.2749 252.386C71.6869 234.561 68.3796 200.285 68.3366 199.942C68.2078 198.739 69.0668 197.708 70.2695 197.579C71.4721 197.45 72.503 198.309 72.6318 199.512C72.7607 200.972 76.025 234.947 70.3983 253.589C70.0977 254.534 69.2386 255.135 68.2937 255.135Z" fill="white"/>
<path d="M158.922 183.62C158.708 183.62 158.493 183.534 158.278 183.405C157.806 183.061 157.677 182.374 158.063 181.902C160.855 178.079 161.8 174.858 160.898 172.409C159.739 169.188 155.701 168.114 155.658 168.114C155.1 167.985 154.713 167.384 154.885 166.826C155.057 166.267 155.615 165.881 156.173 166.052C156.388 166.095 161.328 167.384 162.874 171.679C164.034 174.858 163.003 178.723 159.781 183.19C159.61 183.448 159.266 183.62 158.922 183.62Z" fill="white"/>
<path d="M183.62 169.66C183.147 169.66 182.718 169.36 182.589 168.887L171.851 131.949C171.679 131.39 172.023 130.789 172.581 130.617C173.14 130.445 173.741 130.789 173.913 131.347L184.651 168.286C184.822 168.844 184.479 169.446 183.92 169.617C183.835 169.66 183.706 169.66 183.62 169.66Z" fill="white"/>
<path d="M195.646 161.929C195.603 161.929 195.518 161.929 195.475 161.929C194.916 161.843 194.53 161.285 194.616 160.683C196.806 147.927 200.929 139.637 206.9 136.029C211.582 133.194 215.619 134.44 215.791 134.526C216.349 134.697 216.65 135.299 216.478 135.9C216.306 136.458 215.705 136.759 215.147 136.587C215.018 136.544 211.796 135.599 207.974 137.919C204.237 140.152 199.297 146.037 196.72 161.07C196.634 161.585 196.162 161.929 195.646 161.929Z" fill="white"/>
<path d="M275.967 142.171C275.408 142.171 274.936 141.742 274.893 141.14C273.647 116.572 258.399 114.682 258.227 114.682C257.626 114.639 257.197 114.081 257.282 113.479C257.368 112.878 257.884 112.448 258.485 112.534C258.657 112.534 262.952 113.05 267.419 116.872C271.457 120.351 276.396 127.353 277.083 141.054C277.126 141.656 276.654 142.128 276.052 142.171H275.967Z" fill="white"/>
<path d="M339.536 108.239C339.106 108.239 338.719 107.981 338.548 107.552C330.945 88.8247 326.306 85.2597 324.674 84.5725C324.416 84.4436 324.116 84.4007 323.815 84.4436C323.343 84.7872 322.655 84.6584 322.312 84.1859C321.968 83.7134 322.097 83.0262 322.57 82.6826C322.698 82.5537 323.557 82.0383 324.932 82.4249C329.141 83.5846 334.51 92.0032 340.523 106.779C340.738 107.337 340.481 107.938 339.922 108.196C339.793 108.196 339.664 108.239 339.536 108.239Z" fill="white"/>
<path d="M314.194 112.964C313.721 112.964 313.292 112.62 313.163 112.191C309.383 98.403 305.217 94.7092 302.339 94.0219C299.333 93.2917 297.056 95.783 296.97 95.8689C296.584 96.2984 295.896 96.3413 295.467 95.9548C295.037 95.5682 294.994 94.881 295.381 94.4514C295.51 94.3226 298.559 90.9294 302.855 91.9173C307.837 93.077 312.003 99.7345 315.268 111.632C315.44 112.191 315.096 112.792 314.495 112.964C314.366 112.964 314.28 112.964 314.194 112.964Z" fill="white"/>
<path d="M376.904 73.8774C376.818 73.8774 376.732 73.8774 376.646 73.8345C376.088 73.7056 375.744 73.1043 375.873 72.5459C376.775 68.852 376.388 66.0602 374.799 64.2562C371.835 60.9918 365.564 61.8509 365.479 61.8509C364.877 61.9368 364.362 61.5073 364.276 60.9059C364.19 60.3476 364.619 59.7892 365.178 59.7033C365.479 59.6603 372.652 58.6724 376.388 62.7958C378.536 65.1582 379.051 68.5943 377.978 73.0613C377.806 73.5338 377.376 73.8774 376.904 73.8774Z" fill="white"/>
<path d="M141.312 239.329L302.511 166.138C305.518 164.764 309.083 166.095 310.457 169.102C311.831 172.109 310.5 175.674 307.493 177.048L146.294 250.238C143.288 251.613 139.723 250.281 138.348 247.275C136.974 244.225 138.305 240.703 141.312 239.329Z" fill="#67087E"/>
<path d="M143.803 251.398C140.152 251.398 137.189 248.434 137.146 244.783C137.146 242.163 138.649 239.801 141.054 238.727L302.21 165.537C305.561 164.034 309.469 165.494 310.972 168.844C312.476 172.195 311.015 176.103 307.665 177.607L146.552 250.797C145.693 251.183 144.748 251.398 143.803 251.398ZM305.002 166.224C304.229 166.224 303.499 166.396 302.812 166.697L141.613 239.887C138.907 241.09 137.747 244.268 138.95 246.974C140.152 249.68 143.331 250.84 146.037 249.637L307.193 176.447C309.899 175.244 311.101 172.066 309.856 169.36C308.997 167.47 307.107 166.224 305.002 166.224Z" fill="#1D1E1B"/>
<path d="M246.115 197.579C244.912 197.579 243.967 196.634 243.967 195.432C243.967 194.573 244.483 193.799 245.256 193.456L302.382 168.973C303.456 168.501 304.744 169.016 305.217 170.09C305.689 171.164 305.174 172.452 304.1 172.925L246.974 197.407C246.673 197.536 246.416 197.579 246.115 197.579Z" fill="white"/>
<path d="M60.6912 285.931C57.341 285.931 54.0336 285.33 50.8981 284.127C32.8583 277.384 23.1941 254.276 22.8075 253.288C22.6357 252.858 22.8505 252.343 23.28 252.171C23.7095 251.999 24.225 252.214 24.3968 252.644C24.4827 252.858 34.1469 276.053 51.4995 282.495C58.9302 285.244 66.7045 284.6 74.7365 280.52C75.166 280.348 75.6815 280.562 75.8533 280.992C76.0251 281.379 75.8533 281.851 75.5096 282.066C70.5272 284.643 65.5448 285.931 60.6912 285.931Z" fill="#1D1E1B"/>
<path d="M193.284 110.816C192.897 110.816 192.554 110.558 192.425 110.172C185.724 81.7376 193.37 57.4698 201.015 42.093C209.262 25.4705 219.227 15.3768 219.313 15.2909C219.614 14.9473 220.172 14.9043 220.516 15.205C220.859 15.5057 220.902 16.064 220.601 16.4077C220.559 16.4506 220.559 16.4936 220.516 16.4936C220.43 16.5795 210.637 26.5014 202.519 42.909C195.045 57.9852 187.528 81.8665 194.143 109.742C194.272 110.215 193.971 110.687 193.499 110.773C193.413 110.816 193.37 110.816 193.284 110.816Z" fill="#1D1E1B"/>
<path d="M205.311 105.662C204.838 105.662 204.494 105.318 204.452 104.846C202.733 72.6748 223.307 46.1304 223.522 45.8298C223.823 45.4432 224.338 45.4002 224.725 45.7009C225.111 46.0016 225.154 46.517 224.854 46.9036C224.639 47.1613 204.452 73.2331 206.127 104.717C206.17 105.189 205.783 105.576 205.311 105.619V105.662Z" fill="#1D1E1B"/>
<path d="M409.977 411.051C409.633 411.051 409.333 410.75 409.333 410.406V161.285C409.333 160.941 409.633 160.641 409.977 160.641C410.32 160.641 410.621 160.941 410.621 161.285V410.406C410.621 410.75 410.32 411.051 409.977 411.051Z" fill="#1D1E1B"/>
<path d="M397.521 184.264C397.177 184.264 396.876 183.963 396.876 183.62V134.655C396.876 134.311 397.177 134.01 397.521 134.01C397.864 134.01 398.165 134.311 398.165 134.655V183.62C398.165 183.963 397.864 184.264 397.521 184.264Z" fill="#1D1E1B"/>
</svg>
