<svg width="41" height="41" viewBox="0 0 41 41" fill="none" xmlns="http://www.w3.org/2000/svg">
<path d="M18.9059 1.25469C20.1471 0.534677 21.6789 0.534678 22.9201 1.25469L29.563 5.10815L36.2216 8.93434C37.4658 9.64925 38.2317 10.9758 38.2287 12.4107L38.213 20.0904L38.2287 27.77C38.2317 29.205 37.4658 30.5315 36.2216 31.2464L29.563 35.0726L22.9201 38.9261C21.6789 39.6461 20.1471 39.6461 18.9059 38.9261L12.263 35.0726L5.60431 31.2464C4.36016 30.5315 3.59427 29.205 3.59721 27.77L3.61296 20.0904L3.59721 12.4107C3.59427 10.9758 4.36016 9.64925 5.60431 8.93434L12.263 5.10815L18.9059 1.25469Z" fill="#FFD54B"/>
<g clip-path="url(#clip0_32_11200)">
<path d="M20.913 15.0904L24.2463 20.0904L28.413 16.7571L26.7463 25.0904H15.0796L13.413 16.7571L17.5796 20.0904L20.913 15.0904Z" fill="white" stroke="white" stroke-width="1.5" stroke-linecap="round" stroke-linejoin="round"/>
</g>
<defs>
<clipPath id="clip0_32_11200">
<rect width="20" height="20" fill="white" transform="translate(10.913 10.0904)"/>
</clipPath>
</defs>
</svg>
