<svg width="41" height="41" viewBox="0 0 41 41" fill="none" xmlns="http://www.w3.org/2000/svg">
<path d="M18.8938 1.25469C20.135 0.534677 21.6668 0.534678 22.908 1.25469L29.5509 5.10815L36.2095 8.93434C37.4537 9.64925 38.2196 10.9758 38.2166 12.4107L38.2009 20.0904L38.2166 27.77C38.2196 29.205 37.4537 30.5315 36.2095 31.2464L29.5509 35.0726L22.908 38.9261C21.6668 39.6461 20.135 39.6461 18.8938 38.9261L12.2509 35.0726L5.59223 31.2464C4.34808 30.5315 3.58219 29.205 3.58513 27.77L3.60088 20.0904L3.58513 12.4107C3.58219 10.9758 4.34808 9.64925 5.59223 8.93434L12.2509 5.10815L18.8938 1.25469Z" fill="#E1E1E2"/>
<g clip-path="url(#clip0_32_11213)">
<path d="M20.9009 15.0904L24.2342 20.0904L28.4009 16.7571L26.7342 25.0904H15.0675L13.4009 16.7571L17.5675 20.0904L20.9009 15.0904Z" fill="white" stroke="white" stroke-width="1.5" stroke-linecap="round" stroke-linejoin="round"/>
</g>
<defs>
<clipPath id="clip0_32_11213">
<rect width="20" height="20" fill="white" transform="translate(10.9009 10.0904)"/>
</clipPath>
</defs>
</svg>
